<svg xmlns="http://www.w3.org/2000/svg" version="1.1" xmlns:xlink="http://www.w3.org/1999/xlink" xmlns:svgjs="http://svgjs.dev/svgjs" viewBox="0 0 800 450" opacity="1"><defs><filter id="bbblurry-filter" x="-100%" y="-100%" width="400%" height="400%" filterUnits="objectBoundingBox" primitiveUnits="userSpaceOnUse" color-interpolation-filters="sRGB">
	<feGaussianBlur stdDeviation="29" x="0%" y="0%" width="100%" height="100%" in="SourceGraphic" edgeMode="none" result="blur"></feGaussianBlur></filter></defs><g filter="url(#bbblurry-filter)"><ellipse rx="55" ry="57" cx="417.383056640625" cy="221.15853881835938" fill="#000000"></ellipse><ellipse rx="55" ry="57" cx="441.60908924449586" cy="316.988544810902" fill="#000000"></ellipse><ellipse rx="55" ry="57" cx="423.1941750266335" cy="120.28048844770953" fill="#000000"></ellipse><ellipse rx="55" ry="57" cx="319.980399391868" cy="318.91776622425425" fill="#000000"></ellipse><ellipse rx="55" ry="57" cx="587.6756314364347" cy="122.01896944912997" fill="#000000"></ellipse><ellipse rx="55" ry="57" cx="584.923700506037" cy="299.54010564630687" fill="#000000"></ellipse><ellipse rx="55" ry="57" cx="496.2820268110795" cy="165.87094393643463" fill="#4169e1"></ellipse><ellipse rx="55" ry="57" cx="250.61580449884593" cy="120.54197831587356" fill="#4169e1"></ellipse><ellipse rx="55" ry="57" cx="735.819130637429" cy="218.6178713711825" fill="#4169e1"></ellipse><ellipse rx="55" ry="57" cx="166.81685846502126" cy="173.82436509565875" fill="#4169e1"></ellipse><ellipse rx="55" ry="57" cx="72.37086348100138" cy="223.678786537864" fill="hsla(258, 73%, 57%, 1)"></ellipse><ellipse rx="55" ry="57" cx="260.2327603426846" cy="215.4495100541548" fill="hsla(267, 73%, 57%, 1)"></ellipse><ellipse rx="55" ry="57" cx="142.53278975053274" cy="136.19020774147722" fill="hsla(267, 73%, 57%, 1)"></ellipse><ellipse rx="55" ry="57" cx="628.843048095703" cy="143.56049554998225" fill="hsla(258, 73%, 57%, 1)"></ellipse><ellipse rx="55" ry="57" cx="212.8777881969105" cy="285.6051552512429" fill="#000000"></ellipse><ellipse rx="55" ry="57" cx="756.768759987571" cy="140.72612276944247" fill="#000000"></ellipse><ellipse rx="55" ry="57" cx="23.905611905184628" cy="141.8361025723544" fill="#000000"></ellipse><ellipse rx="55" ry="57" cx="21.361444646661994" cy="306.66342301802194" fill="#000000"></ellipse><ellipse rx="55" ry="57" cx="759.9229625355113" cy="303.12374877929693" fill="#000000"></ellipse><ellipse rx="55" ry="57" cx="271.62595436789775" cy="122.750075600364" fill="#000000"></ellipse><ellipse rx="55" ry="57" cx="-18.795658458362936" cy="221.94796891645953" fill="hsla(267, 73%, 57%, 1)"></ellipse><ellipse rx="55" ry="57" cx="524.3548084605823" cy="294.6076160777699" fill="hsla(267, 73%, 57%, 1)"></ellipse><ellipse rx="55" ry="57" cx="129.956124045632" cy="323.9037697531961" fill="hsla(267, 73%, 57%, 1)"></ellipse><ellipse rx="55" ry="57" cx="363.5008683638139" cy="274.2497669566761" fill="hsla(267, 73%, 57%, 1)"></ellipse><ellipse rx="55" ry="57" cx="649.2010276100852" cy="289.80949124422943" fill="#4169e1"></ellipse><ellipse rx="55" ry="57" cx="332.990029074929" cy="132.20096657492894" fill="#4169e1"></ellipse><ellipse rx="55" ry="57" cx="123.62581842595887" cy="230.95320822975853" fill="#4169e1"></ellipse><ellipse rx="55" ry="57" cx="649.8230923739346" cy="317.0689128528942" fill="#000000"></ellipse><ellipse rx="55" ry="57" cx="662.0319102894175" cy="213.3320895108309" fill="#000000"></ellipse><ellipse rx="55" ry="57" cx="827.3321796764027" cy="224.78535600142047" fill="#000000"></ellipse><ellipse rx="55" ry="57" cx="115.0228146639738" cy="175.62542863325638" fill="#000000"></ellipse><ellipse rx="55" ry="57" cx="526.7060213955965" cy="229.43433449485087" fill="#000000"></ellipse><ellipse rx="55" ry="57" cx="464.16061123934674" cy="212.02403397993604" fill="hsla(267, 73%, 57%, 1)"></ellipse><ellipse rx="55" ry="57" cx="780.0294300426137" cy="206.39707391912287" fill="#4169e1"></ellipse><ellipse rx="55" ry="57" cx="408.835166237571" cy="197.60060951926494" fill="#000000"></ellipse><ellipse rx="55" ry="57" cx="190.22890624503458" cy="141.44958902938987" fill="hsla(267, 73%, 57%, 1)"></ellipse><ellipse rx="55" ry="57" cx="629.91552734375" cy="278.11814186789775" fill="#4169e1"></ellipse><ellipse rx="55" ry="57" cx="300.05763383345175" cy="201.15439397638494" fill="#000000"></ellipse></g></svg>