<svg xmlns="http://www.w3.org/2000/svg" version="1.1" xmlns:xlink="http://www.w3.org/1999/xlink" xmlns:svgjs="http://svgjs.dev/svgjs" viewBox="0 0 640 800" opacity="1"><defs><filter id="bbblurry-filter" x="-100%" y="-100%" width="400%" height="400%" filterUnits="objectBoundingBox" primitiveUnits="userSpaceOnUse" color-interpolation-filters="sRGB">
	<feGaussianBlur stdDeviation="21" x="0%" y="0%" width="100%" height="100%" in="SourceGraphic" edgeMode="none" result="blur"></feGaussianBlur></filter></defs><g filter="url(#bbblurry-filter)"><ellipse rx="112.5" ry="113" cx="400.6557597903518" cy="264.06762021574605" fill="#000000"></ellipse><ellipse rx="112.5" ry="113" cx="362.3362933608155" cy="192.62487857248692" fill="#000000"></ellipse><ellipse rx="112.5" ry="113" cx="22.466906268046387" cy="302.0986474834956" fill="#000000"></ellipse><ellipse rx="112.5" ry="113" cx="60.5460319519043" cy="580.8606695702397" fill="#000000"></ellipse><ellipse rx="112.5" ry="113" cx="627.2255249023438" cy="596.5960592298691" fill="#000000"></ellipse><ellipse rx="112.5" ry="113" cx="349.28737645365163" cy="483.540120309793" fill="#000000"></ellipse><ellipse rx="112.5" ry="113" cx="545.7366272062018" cy="429.87090579087" fill="#4169e1"></ellipse><ellipse rx="112.5" ry="113" cx="93.52489937380642" cy="183.08743063387044" fill="#4169e1"></ellipse><ellipse rx="112.5" ry="113" cx="269.6372587578296" cy="197.52696554927644" fill="#4169e1"></ellipse><ellipse rx="112.5" ry="113" cx="211.1804989417103" cy="446.55164833009246" fill="#4169e1"></ellipse><ellipse rx="112.5" ry="113" cx="406.9163001898985" cy="350.95151514791064" fill="hsla(258, 73%, 57%, 1)"></ellipse><ellipse rx="112.5" ry="113" cx="408.86041343982856" cy="598.6185761494912" fill="hsla(267, 73%, 57%, 1)"></ellipse><ellipse rx="112.5" ry="113" cx="213.07823459241945" cy="307.82656716322447" fill="hsla(267, 73%, 57%, 1)"></ellipse><ellipse rx="112.5" ry="113" cx="-29.33874738932559" cy="471.56045303980216" fill="hsla(258, 73%, 57%, 1)"></ellipse><ellipse rx="112.5" ry="113" cx="216.51413469170598" cy="428.87792022423105" fill="#000000"></ellipse><ellipse rx="112.5" ry="113" cx="652.768805565504" cy="225.81704186673352" fill="#000000"></ellipse><ellipse rx="112.5" ry="113" cx="409.089567407452" cy="538.2617646260536" fill="#000000"></ellipse><ellipse rx="112.5" ry="113" cx="36.634177479303844" cy="215.75433429358554" fill="#000000"></ellipse><ellipse rx="112.5" ry="113" cx="346.1047998451179" cy="243.48738039365182" fill="#000000"></ellipse><ellipse rx="112.5" ry="113" cx="630.171415596664" cy="359.11373094601356" fill="#000000"></ellipse></g></svg>