<svg xmlns="http://www.w3.org/2000/svg" version="1.1" xmlns:xlink="http://www.w3.org/1999/xlink" xmlns:svgjs="http://svgjs.dev/svgjs" viewBox="0 0 800 800"><defs><linearGradient x1="50%" y1="0%" x2="50%" y2="100%" id="uundulate-grad"><stop stop-color="#4169e1" stop-opacity="1" offset="45%"></stop><stop stop-color="#9244e1" stop-opacity="1" offset="100%"></stop></linearGradient></defs><g stroke-width="1" stroke="url(#uundulate-grad)" fill="none"><path d="M647.345235662638 343.9097855135702C654.4263330619034 476.63435856322815 759.0478965457793 585.6058163099444 702.0939221302983 671.0052395075479C645.1399477148173 756.4046627051514 462.7484743513264 797.990453895766 373.9661584683281 753.827016862067C285.1838425853299 709.6635798283683 336.45040847317205 571.2530204564628 275.93880589190576 459.02074174579286C215.42720331063947 346.78846303512296 59.39721797251241 274.12890608922123 83.51046607824924 215.1120790508519C107.62371418398612 156.0952520124825 269.891940854532 213.4868032494661 391.6823967994437 175.73997196161963C513.4728527443554 137.99314067377315 614.8415631839932 -1.1080889541337342 668.1046546138252 33.92728886918934C721.3677460436573 68.96266669251247 640.2641382633725 211.1852124639122 647.345235662638 343.9097855135702C654.4263330619034 476.63435856322815 759.0478965457793 585.6058163099444 702.0939221302983 671.0052395075479 "></path><path d="M638.8160601400577 345.84390979408283C645.6529817669348 473.99177342823543 746.666905130677 579.205594700927 691.6768608674539 661.6602102020614C636.6868166042309 744.1148257031957 460.58470439120515 784.2666240941339 374.86384767658626 741.6260641995282C289.14299096196726 698.9855043049224 338.6417442329873 565.3477228423928 280.21674863728185 456.9855227079531C221.7917530415765 348.6233225735132 71.14211202545374 278.46926759126313 94.42386881719972 221.48750355421691C117.70562560894564 164.50573951717058 274.3783961874037 219.91827174598234 391.9691812376633 183.4730553301306C509.55996628792286 147.02783891427885 607.4332039537801 12.723203411472184 658.8596370584455 46.55046475812895C710.2860701631109 80.37772610478572 631.9791385131808 217.69604615993035 638.8160601400577 345.84390979408283C645.6529817669348 473.99177342823543 746.666905130677 579.205594700927 691.6768608674539 661.6602102020614 "></path><path d="M630.2869151350558 347.7780645921737C636.8796609895442 471.34921881082073 734.2859442331529 572.8054036094876 681.2598301221877 652.3152114141529C628.2337160112227 731.8250192188184 458.42096494866223 770.5428248100802 375.76156740242243 729.4251420545675C293.1021698561826 688.3074592990546 340.8331105103806 559.4424557459013 284.4947219002361 454.9503341876914C228.1563332900916 350.4582126294815 82.88703659597326 282.8096596108833 105.33730207372832 227.86295857516006C127.78756755148333 172.9162575394368 278.8648820378536 226.3497707600767 392.255996193461 191.20616921621968C505.6471103490685 156.06256767236266 600.0248752411451 26.554526294656227 649.6146500206439 59.17367116464669C699.2044248001426 91.79281603463716 623.6941692805673 224.20691037352663 630.2869151350558 347.7780645921737C636.8796609895442 471.34921881082073 734.2859442331529 572.8054036094876 681.2598301221877 652.3152114141529 "></path><path d="M621.7578311652098 349.7122193902644C628.1064012473099 468.70666419340614 721.9050443707849 566.4052125180483 670.8428604120778 642.9702126262445C619.7806764533707 719.5352127344407 456.25728654127545 756.819025526026 376.65934816341496 717.2242199096066C297.06140978555436 677.6294142931869 343.02453782293014 553.5371886494095 288.77275619834654 452.91514566742967C234.520974573763 352.29310268544975 94.63202220164902 287.1500516305033 116.25079636541312 234.23841359610321C137.86957052917722 181.32677556170307 283.3514289234597 232.78126977417105 392.54287218441505 198.93928310230876C501.7343154453704 165.09729643044642 592.6166075636663 40.38584917784027 640.3697240179986 71.79687757116437C688.1228404723307 103.20790596448853 615.4092610831099 230.7177745871228 621.7578311652098 349.7122193902644C628.1064012473099 468.70666419340614 721.9050443707849 566.4052125180483 670.8428604120778 642.9702126262445 "></path><path d="M613.2286861602079 351.6463436707771C619.3330804699194 466.0640790584133 709.5240834732608 560.0049909090308 660.4258296668116 633.625183320758C611.3275758603625 707.2453757324851 454.0935470987324 743.0951957243941 377.55706788925113 705.0232672470676C301.02058867976984 666.9513387697409 345.21590410032354 547.6318910353397 293.05072946130076 450.8799266295898C240.8855548222781 354.12796222383986 106.37694677216854 291.4904131325453 127.16422962194173 240.61383809946824C147.95151247171486 189.73726306639117 287.8379147739096 239.2127382706874 392.82968714021285 206.67236647081972C497.8214595065159 174.13199467095205 585.2082788510313 54.21714154344613 631.124736980197 84.42005346010399C677.0411951093624 114.62296537676184 607.1242918504963 237.22860828314094 613.2286861602079 351.6463436707771C619.3330804699194 466.0640790584133 709.5240834732608 560.0049909090308 660.4258296668116 633.625183320758 "></path><path d="M604.6995106376277 353.5805595040242C610.5597291749507 463.42158547615486 697.1430920581585 553.6048608527476 650.0087684039672 624.2802455680057C602.8744447497761 694.9556302832638 451.92977713861114 729.3714574754966 378.4547570975092 692.822406137263C304.9797370564072 656.2733547990294 347.4072398601386 541.7266849740042 297.32867220667686 448.84479914448434C247.25010455321512 355.96291331496445 118.12184082510993 295.8308661873216 138.07763236089215 246.98935415556764C158.03342389667444 198.14784212381363 292.3243701067813 245.644298319938 393.1164715784324 214.40554139206506C493.90857305008353 183.16678446419212 577.7999196208182 68.04852546178643 621.8797194248172 97.04332090177797C665.9595192288161 126.03811634176947 598.8392921003045 243.73953353189341 604.6995106376277 353.5805595040242C610.5597291749507 463.42158547615486 697.1430920581585 553.6048608527476 650.0087684039672 624.2802455680057 "></path><path d="M596.1703351150475 355.51459223180245C601.7863778799822 460.77890878842777 684.7621006430561 547.2045476909959 639.5917071411229 614.9351247097848C594.4213136391897 682.6657017285738 449.7660071784901 715.6475361211302 379.3524463057672 680.6213619219897C308.93888543304445 645.5951877228492 349.59857561995386 535.8212958072 301.60661495205295 446.8094885539101C253.6146542841521 357.7976813006203 129.86673487805132 300.17113613662923 148.99103509984263 253.3646871061983C168.11533532163395 206.55823807576735 296.81082543965306 252.07567526371986 393.403256016652 222.13853320784165C489.99568659365093 192.20139115196343 570.391560390605 81.87972627465797 612.6347018694373 109.66640523798316C654.8778433482697 137.45308420130834 590.5542923501127 250.25027567517714 596.1703351150475 355.51459223180245C601.7863778799822 460.77890878842777 684.7621006430561 547.2045476909959 639.5917071411229 614.9351247097848 "></path><path d="M587.6412206276235 357.44883858262756C593.0130876201697 458.13644572374744 672.3811702631101 540.8044481522908 629.1747069134349 605.5902174746107C585.9682435637595 670.3759867969305 447.6022982535251 701.9238283898106 380.2501965491815 668.4205313297632C312.89809484483806 634.9172342697157 351.7899724149253 529.9161202634426 305.8846187325853 444.77439158638276C259.9792650502454 359.6326629093228 141.61168996614896 304.5116197089835 159.9044988739493 259.74023367987576C178.1973077817497 214.96884765076794 301.29734180768105 258.5072658305486 393.6901014900279 229.8717386466651C486.0828611723747 201.23621146278157 562.9832621955481 95.71114071057639 603.3897453492139 122.28970319723527C643.7962285028796 148.86826568389415 582.2693536350773 256.7612314415078 587.6412206276235 357.44883858262756C593.0130876201697 458.13644572374744 672.3811702631101 540.8044481522908 629.1747069134349 605.5902174746107 "></path><path d="M579.1120756226214 359.3829628631403C584.2397668427791 455.4938605887546 660.000209365586 534.4042265432734 618.7576761681686 596.245188169124C577.5151429707513 658.086149794975 445.43855881098204 688.1999985881786 381.1479162750178 656.2195786672241C316.85727373905354 624.2391587462698 353.98133869231856 524.0108226493728 310.1625919955395 442.7391725485429C266.34384529876047 361.467522447713 153.35661453666847 308.85198121102553 170.8179321304779 266.1156581832408C188.27924972428735 223.3793351554561 305.7838276581309 264.9387343270649 393.9769164458256 237.60482201517607C482.1700052335202 210.2709097032872 555.5749334829131 109.54243307618225 594.1447583114123 134.91287908617483C632.7145831399114 160.2833250961674 573.9843844024638 263.27206513752583 579.1120756226214 359.3829628631403C584.2397668427791 455.4938605887546 660.000209365586 534.4042265432734 618.7576761681686 596.245188169124 "></path><path d="M570.5828695824632 361.3170566260749C575.4663850302323 452.8512449361838 647.6191874329055 528.0039744166777 608.340584387746 586.9001283460594C569.0619813425868 645.7962822754412 443.27475833328276 674.4761382689685 382.0455749656977 644.0185954871072C320.8163915981128 613.5610527052459 356.1726439345557 518.1054945177249 314.4405042233375 440.70392299312493C272.7083645121194 363.3023514685251 165.10147807203168 313.1923121954893 181.73130435185027 272.4910521690277C198.3611306316688 231.78979214256606 310.27025247342453 271.370172306003 394.26367036646707 245.3378748661089C478.2570882595096 219.30557742621477 548.1665437351219 123.37369492421004 584.8997102384544 147.5360244575363C621.6328767417868 171.69835399086259 565.699354134694 269.78286831596586 570.5828695824632 361.3170566260749C575.4663850302323 452.8512449361838 647.6191874329055 528.0039744166777 608.340584387746 586.9001283460594 "></path><path d="M562.0538008714065 363.25122668295467C566.6931405467872 450.20870557755825 635.2383028293266 521.6037985840275 597.9236299364252 577.5551448169401C560.6089570435238 633.5064910498527 441.11109518468504 660.7523542437036 382.9433709854793 631.8176886009354C324.7756467862735 602.8830229581672 358.3640865058943 512.2002426800223 318.718553780237 438.66874973165227C279.0730210545798 365.1372567832824 176.8464789364965 317.53271947389845 192.64481390232413 278.8665224487599C208.44314886815175 240.20032542362134 314.7568146178197 277.80168657888646 394.5505616162102 253.07100401098705C474.34430861460055 228.34032144308765 540.7582913164322 137.20503306618315 575.6547994945981 160.15924612284311C610.5513076727639 183.11345917950302 557.4144611960257 276.2937477883512 562.0538008714065 363.25122668295467C566.6931405467872 450.20870557755825 635.2383028293266 521.6037985840275 597.9236299364252 577.5551448169401 "></path><path d="M553.5246863839825 365.18539673983446C557.9198502869748 447.5661662189325 622.8573724493806 515.2036227513772 587.5066297087371 568.2101612878207C552.1558869680937 621.2166998242643 438.94738625972013 647.0285702184387 383.8411212288936 619.6167817147636C328.73485619806706 592.2049932110884 360.5554833008657 506.2949908423195 322.99655756076936 436.6335764701796C285.43763182067306 366.9721620980397 188.59143402459415 321.8731267523076 203.55827767643086 285.2419927284921C218.52512132826752 248.61085870467662 319.2433309858477 284.2332008517699 394.837407089586 260.8041331558652C470.4314831933243 237.37506545996052 533.3499931213754 151.0363712081562 566.4098429743746 172.78246778814986C599.4696928273738 194.52856436814352 549.1295224809901 282.8046272607365 553.5246863839825 365.18539673983446C557.9198502869748 447.5661662189325 622.8573724493806 515.2036227513772 587.5066297087371 568.2101612878207 "></path><path d="M544.995449826246 367.1195210203472C549.1464379568499 444.9235810839398 610.476319999122 508.8034011423597 577.0895074107366 558.8651319823341C543.7026948223511 608.9268628223086 436.7835552644427 633.3047404168068 384.7387494019954 607.4158290522247C332.6939435395482 581.5269176876426 362.7467580255246 500.3896932282497 327.2744392709892 434.59835743233975C291.8021205164538 368.8070216364299 200.3362670423793 326.2134882543495 214.47161938022504 291.61741723185713C228.60697171807078 257.02134620936476 323.7297252835632 290.66466934828617 395.12413049264933 268.53721652437616C466.5185357017356 246.40976370046616 525.941572856006 164.86766357376212 557.1647643838386 185.40564367708947C588.3879559116712 205.94362378041677 540.8444616956422 289.3154609567546 544.995449826246 367.1195210203472C549.1464379568499 444.9235810839398 610.476319999122 508.8034011423597 577.0895074107366 558.8651319823341 "></path><path d="M536.4663353388221 369.053675818438C540.3731476970374 442.2810264665252 598.095389619176 502.4032100509203 566.6725071830485 549.5201331944257C535.249624746921 596.6370563379311 434.6198463394778 619.580941132753 385.6364996454098 595.2149069072639C336.6531529513418 570.8488726817748 364.9381548204961 494.484426131758 331.55244305152155 432.56316891207814C298.16673128254706 370.64191169239814 212.08122213047693 330.55388027396964 225.38508315433177 297.9928722528003C238.6889441781866 265.431864231631 328.2162416515912 297.0961683623805 395.41097596602526 276.27033041046525C462.60571028045933 255.44449245854997 518.5332746609491 178.69898645694616 547.9198078636151 198.02885008360715C577.306341066281 217.3587137102682 532.5595229806067 295.8263251703508 536.4663353388221 369.053675818438C540.3731476970374 442.2810264665252 598.095389619176 502.4032100509203 566.6725071830485 549.5201331944257 "></path><path d="M527.9372055926091 370.9878153577397C531.599842178436 439.6384565903214 585.7144439804408 496.0030037006918 556.2554916965714 540.1751191477281C526.7965394127018 584.3472345947645 432.45612215572373 605.85712658991 386.53423463003503 583.0139695035139C340.61234710434627 560.170812417118 367.12953635667844 488.57914377647717 335.83043157326483 430.52796513302724C304.5313267898512 372.4767864895773 223.8261619597855 334.8942570348006 236.29853166964938 304.36831201495437C248.7709013795133 273.84236699510814 332.7027427608301 303.5276521176859 395.697806180612 284.0034290377653C458.69286960039403 264.47920595784467 511.1249612071032 192.53029408134114 538.6748360846025 210.65204123133583C566.2247109621019 228.77378838133052 524.2745690067821 302.33717412515796 527.9372055926091 370.9878153577397C531.599842178436 439.6384565903214 585.7144439804408 496.0030037006918 556.2554916965714 540.1751191477281 "></path><path d="M519.4080300700289 372.9219548970414C522.8264908834674 436.99588671411766 573.3334525653386 489.60279735046356 545.8384304337269 530.8301051010308C518.3434083021154 572.0574128515979 430.2923521956026 592.133312047067 387.43192383829313 570.8130320997641C344.57149548098363 549.4927521524612 369.32087211649366 482.6738614211964 340.1083743186409 428.49276135397656C310.89587652078825 374.3116612867566 235.5710560127269 339.23463379563157 247.21193440859986 310.74375177710846C258.8528128044728 282.2528697585853 337.18919809370186 309.95913587299117 395.98459061883165 291.7365276650653C454.77998314396143 273.5139194571394 503.71660197689005 206.36160170573612 529.4298185292228 223.2752323790645C555.1430350815555 240.1888630523929 515.9895692565904 308.8480230799652 519.4080300700289 372.9219548970414C522.8264908834674 436.99588671411766 573.3334525653386 489.60279735046356 545.8384304337269 530.8301051010308 "></path><path d="M510.8788850650268 374.8561096951322C514.0531701060768 434.35333209670307 560.9524916678143 483.20260625902415 535.4213996884607 521.4851063131223C509.8903077091072 559.7676063672204 428.12861275305954 578.409512763013 388.32964356412936 558.6121099548034C348.53067437519906 538.8147071465935 371.51223839388695 476.76859432470474 344.38634758159515 426.45757283371483C317.26045676930335 376.1465513427249 247.31598058324641 343.57502581525165 258.12536766512846 317.1192067980516C268.9347547470105 290.6633877808515 341.67568394415173 316.3906348870855 396.2714055746294 299.4696415511544C450.86712720510707 282.5486482152232 496.30827326425504 220.1929245889201 520.1848314914212 235.8984387855822C544.0613897185872 251.60395298224427 507.7046000239768 315.3588872935614 510.8788850650268 374.8561096951322C514.0531701060768 434.35333209670307 560.9524916678143 483.20260625902415 535.4213996884607 521.4851063131223 "></path><path d="M502.34977057760284 376.79026449322305C505.2798798462644 431.71077747928837 548.5715612878682 476.80241516758474 525.0043994607727 512.1401075252138C501.4372376336771 547.4777998828429 425.96490382809463 564.6857134789593 389.22739380754365 546.4111878098424C352.48988378699266 528.1366621407257 373.70363518885836 470.86332722821305 348.6643513621275 424.4223843134531C323.6250675353966 377.98144139869316 259.060935671344 347.91541783487173 269.03883143923514 323.49466181899476C279.0167272071263 299.0739058031178 346.1622003121797 322.82213390117994 396.5582510480053 307.20275543724347C446.95430178383083 291.583376973307 488.89997506919815 234.02424747210415 510.9398749711977 248.52164519209992C532.9797748731971 263.01904291209564 499.4196613089414 321.8697515071576 502.34977057760284 376.79026449322305C505.2798798462644 431.71077747928837 548.5715612878682 476.80241516758474 525.0043994607727 512.1401075252138 "></path><path d="M493.82064083138994 378.72438877373565C496.506574327663 429.06819234429554 536.1906156491332 470.4021935585672 514.5873839742956 502.7950782197272C492.98415229945795 535.1879628808872 423.80117964434066 550.9618836773273 390.1251287921689 534.2102351473035C356.44907793999715 517.4585866172797 375.89501672504076 464.95802961414324 352.9423398838708 422.38716527561326C329.98966304270084 379.81630093708327 270.8058755006526 352.25577933691363 279.9522799545528 329.8700863223597C289.098684408453 307.4843933078059 350.64870142141865 329.25360239769617 396.8450812625921 314.93583880575443C443.04146110376547 300.6180752138127 481.4916616153522 247.85553983771007 501.69490319218505 261.1448210810395C521.8981447690179 274.43410232436895 491.1347073351168 328.38058520317577 493.82064083138994 378.72438877373565C496.506574327663 429.06819234429554 536.1906156491332 470.4021935585672 514.5873839742956 502.7950782197272 "></path><path d="M485.29145005002067 380.6585435718265C487.7332077739052 426.42563772688095 523.8096089752419 464.0020024671279 504.1703074526621 493.4500794318187C484.53100593008253 522.8981563965096 421.63739442543044 537.2380843932733 391.0228027416379 522.0093130023427C360.40821105784545 506.780541611412 378.0863372260669 459.05276251765144 357.2202673704578 420.35197675535153C336.35419751484875 381.6511909930516 282.5507542948049 356.5961713565337 290.86566743471417 336.2455413433029C299.18058057462343 315.8949113300721 355.13514149550133 335.6851014117906 397.1318504420226 322.6689526918435C439.12855938854386 309.65280397189645 474.08328712635 261.6868627208941 492.44987037801627 273.7680274875572C510.8164536296824 285.8491922542203 482.84969232613605 334.891449416772 485.29145005002067 380.6585435718265C487.7332077739052 426.42563772688095 523.8096089752419 464.0020024671279 504.1703074526621 493.4500794318187 "></path><path d="M476.76232030380766 382.59269836991723C478.95990225530386 423.78308310946625 511.4286633365067 457.6018113756886 493.753291966185 484.10508064391036C476.07792059586325 510.6083499121321 419.4736702416765 523.5142851092194 391.9205377262632 509.8083908573818C364.36740521084994 496.1024966055443 380.27771876224926 453.14749542115976 361.4982558922011 418.3167882350898C342.7187930221529 383.48608104901984 294.2956941241135 360.9365633761538 301.77911595003184 342.620996364246C309.2625377759502 324.3054293523383 359.62164260474026 342.11660042588494 397.4186806566094 330.4020665779326C435.21571870847856 318.68753272998026 466.6749736725041 275.5181856040781 483.2048985990036 286.39123389407496C499.7348235255033 297.26428218407176 474.56473835231145 341.4023136303682 476.76232030380766 382.59269836991723C478.95990225530386 423.78308310946625 511.4286633365067 457.6018113756886 493.753291966185 484.10508064391036 "></path><path d="M468.2331600400165 384.52682265042995C470.1865662191242 421.14049797447353 499.0476871801934 451.2015897666711 483.33624596212974 474.76005133842386C467.62480474406595 498.3185129101764 417.3099155403444 509.7904553075874 392.81824219331037 497.60743819484287C368.32656884627636 485.4244210820983 382.4690697808535 447.24219780708995 365.77621389636624 416.28156919725C349.083358011879 385.32094058741 306.04060343584393 365.27692487819576 312.6925339477713 348.99642086761105C319.34446445969877 332.7159168570264 364.10811319640106 348.5480689224012 397.7054803536181 338.13514994644356C431.30284751083514 327.7222309704859 459.26662970108003 289.349477969684 473.95989630241303 299.0144097830145C488.65316290374597 308.679341596345 466.27975386090884 347.91314732638637 468.2331600400165 384.52682265042995C470.1865662191242 421.14049797447353 499.0476871801934 451.2015897666711 483.33624596212974 474.76005133842386 "></path><path d="M459.7040302938035 386.4609774485207C461.41326070052276 418.49794335705883 486.66674154145835 444.8013986752318 472.9192304756525 465.4150525505154C459.1717194098468 486.0287064257989 415.14619135659035 496.0666560235335 393.71597717793566 485.40651604988204C372.28576299928085 474.7463760762306 384.6604513170359 441.3369307105982 370.0542024181095 414.2463806769883C355.44795351918316 387.1558306433783 317.7855432651525 369.6173168978158 323.605982463089 355.3718758885542C329.4264216610255 341.1264348792927 368.59461430564 354.9795679364956 397.99231056820486 345.86826383253265C427.3900068307698 336.7569597285697 451.8583162472341 303.18080085286806 464.71492452340044 311.63761618953225C477.5715327995668 320.09443152619644 457.99479988708424 354.4240115399826 459.7040302938035 386.4609774485207C461.41326070052276 418.49794335705883 486.66674154145835 444.8013986752318 472.9192304756525 465.4150525505154 "></path><path d="M451.17487003001236 388.3951322466115C452.63992466434314 415.8553887396442 474.28576538514506 438.40120758379237 462.5021844715973 456.0700537626069C450.7186035580495 473.73889994142144 412.98243665525825 482.34285673947966 394.61368164498276 473.2055939049212C376.24492663470727 464.06833107036283 386.8518023356401 435.4316636141065 374.3321604222747 412.21119215672655C361.81251850890925 388.9907206993466 329.53045257688296 373.95770891743587 334.51940046082854 361.74733090949735C339.50834834477405 349.5369529015589 373.0810848973008 361.41106695059 398.2791102652136 353.60137771862173C423.47713563312635 345.7916884866535 444.44997227581 317.0121237360521 455.4699222268098 324.26082259604993C466.4898721778095 331.5095214560478 449.70981539568163 360.9348757535788 451.17487003001236 388.3951322466115C452.63992466434314 415.8553887396442 474.28576538514506 438.40120758379237 462.5021844715973 456.0700537626069 "></path><path d="M442.64572502501034 390.32927178591325C443.8666038869526 413.2128188634405 461.90480448762094 432.00100123356395 452.08515372633104 446.72503971590936C442.26550296504126 461.4490781982548 410.8186972127152 468.61904219663666 395.511401370819 461.0046565011713C380.2041055289227 453.390270805706 389.04316861303346 429.5263812588257 378.6101336852289 410.17598837767576C368.17709875742435 390.8255954965258 341.2753771474025 378.2980856782669 345.4328337173571 368.12277067165144C349.59029028731175 357.94745566503605 377.56757074775066 367.8425507058953 398.5659252210113 361.33447634592176C419.56427969427193 354.8264019859482 437.041643563175 330.843431360447 446.22493518900814 336.8840137437786C455.4082268148412 342.9245961271102 441.424846163068 367.445724708386 442.64572502501034 390.32927178591325C443.8666038869526 413.2128188634405 461.90480448762094 432.00100123356395 452.08515372633104 446.72503971590936 "></path><path d="M434.1165952787973 392.263411325215C435.09329836835116 410.57024898723677 449.52385884888577 425.60079488333554 441.66813823985393 437.38002566921193C433.81241763082204 449.1592564550882 408.65497302896125 454.8952276537937 396.4091363554442 448.80371909742144C384.16329968192724 442.71221054104916 391.2345501492158 423.621098903545 382.8881222069722 408.140784598625C374.54169426472856 392.66047029370503 353.020316976711 382.63846243909785 356.34628223267475 374.4982104338055C359.67224748863845 366.3579584285132 382.0540718569896 374.2740344612006 398.8527554355981 369.0675749732218C415.65143901420663 363.861115485243 429.6333301093291 344.674738984842 436.97996340999555 349.5072048915073C444.32659671066205 354.3396707981725 433.1398921892435 373.9565736631932 434.1165952787973 392.263411325215C435.09329836835116 410.57024898723677 449.52385884888577 425.60079488333554 441.66813823985393 437.38002566921193 "></path><path d="M425.5874350150062 394.19756612330576C426.3199623321716 407.9276943698221 437.1428826925725 419.2006037918962 431.25109223579864 428.03502688130345C425.35930177902475 436.8694499707107 406.49121832762916 441.17142836973983 397.3068408224914 436.6027969524606C388.1224633173536 432.0341655351814 393.4259011678201 417.7158318070533 387.16608021113734 406.1055960783633C380.9062592544546 394.4953603496733 364.76522628844145 386.97885445871793 367.25970023041424 380.8736654547487C369.754174172387 374.7684764507794 386.5405424486504 380.705533475295 399.1395551326068 376.80068885931087C411.73856781656315 372.89584424332674 422.22498613790503 358.50606186802605 427.7349611134049 362.13041129802497C433.24493608890475 365.75476072802394 424.8549076978408 380.4674378767894 425.5874350150062 394.19756612330576C426.3199623321716 407.9276943698221 437.1428826925725 419.2006037918962 431.25109223579864 428.03502688130345 "></path><path d="M417.05829001000416 396.1317056626075C417.54664155478105 405.28512449361835 424.76192179504835 412.80039744166777 420.83406149053246 418.69001283460597C416.90620118601646 424.5796282275441 404.32747888508607 427.4476138268968 398.2045605483276 424.4018595487107C392.0816422115691 421.3561052705246 395.6172674452134 411.8105494517725 391.44405347409156 404.0703922993125C387.27083950296975 396.3302351468525 376.51015085896097 391.31923121954895 378.17313348694285 387.24910521690276C379.83611611492466 383.17897921425663 391.02702829910027 387.1370172306003 399.4263700884045 384.5337874866109C407.8257118777088 381.9305577426215 414.81665742527 372.337369492421 418.48997407560324 374.75360244575364C422.1632907259365 377.16983539908625 416.5699384652272 386.97828683159656 417.05829001000416 396.1317056626075C417.54664155478105 405.28512449361835 424.76192179504835 412.80039744166777 420.83406149053246 418.69001283460597 "></path><path d="M408.5291450050021 398.0658604606983C408.77332077739055 402.6425698762037 412.3809608975242 406.4002063502284 410.41703074526623 409.3450140466975C408.45310059300823 412.2898217431666 402.16373944254303 413.72381454284294 399.1022802741638 412.2009374037499C396.0408211057845 410.67806026465684 397.8086337226067 405.90528235528075 395.7220267370458 402.0352037790508C393.63541975148485 398.1651252028208 388.2550754294805 395.659623239169 389.0865667434714 393.6245602378459C389.91805805746236 391.58949723652285 395.51351414955013 393.5685162446947 399.71318504420225 392.2669013727C403.91285593885436 390.96528650070525 407.408328712635 386.168692375605 409.24498703780165 387.3768088522713C411.08164536296823 388.5849253289377 408.2849692326136 393.48915104519284 408.5291450050021 398.0658604606983C408.77332077739055 402.6425698762037 412.3809608975242 406.4002063502284 410.41703074526623 409.3450140466975 "></path></g></svg>