<svg xmlns="http://www.w3.org/2000/svg" width="21.79" height="22.18" viewBox="0 0 21.79 22.18"><path d="M8,14.76a1.26,1.26,0,0,1,1.29-.24,1.22,1.22,0,0,1,.77,1.06,1.17,1.17,0,0,1-.48,1.15,4.83,4.83,0,0,1-1.73.81,11.56,11.56,0,0,1-2.4.1,4.21,4.21,0,0,1-2.4-.82A5.8,5.8,0,0,1,.86,12.17v-.53A5.71,5.71,0,0,1,3.07,7a4.85,4.85,0,0,1,2.69-.81,4.48,4.48,0,0,1,2,.48,5.23,5.23,0,0,1,2.3,4.8v.48a1.18,1.18,0,0,1-.1.48,1.2,1.2,0,0,1-1.2.77H3.55a2.18,2.18,0,0,0,1.92,1.87H5.9A4.74,4.74,0,0,0,8,14.76Zm-2.36-6H5.47a1.87,1.87,0,0,0-1,.29,2.34,2.34,0,0,0-1,1.58H7.49v-.09A2,2,0,0,0,6.53,9a1.52,1.52,0,0,0-.77-.19Z"/><path d="M11.76,11a4.53,4.53,0,0,1,1-2.93,4.19,4.19,0,0,1,3.5-1.54q3.47.35,4.27,3.12a9.12,9.12,0,0,1,.2,1.35v5.47a1.13,1.13,0,0,1-.72,1.1,1.19,1.19,0,0,1-.53.15,1.1,1.1,0,0,1-1.11-.77,1.36,1.36,0,0,1-.09-.48V11a2,2,0,0,0-2-2,1.81,1.81,0,0,0-2,1.54,2.29,2.29,0,0,0,0,.43v5.47a1.14,1.14,0,0,1-.77,1.1.76.76,0,0,1-.48.15,1.17,1.17,0,0,1-1.15-.77,1.18,1.18,0,0,1-.1-.48Z"/></svg>