<svg version="1.1" id="Layer_1" xmlns="http://www.w3.org/2000/svg" xmlns:xlink="http://www.w3.org/1999/xlink" x="0px" y="0px" viewBox="0 0 20 20" style="enable-background:new 0 0 20 20;" xml:space="preserve"> <path d="M10,0C7.3,0,6.9,0,5.9,0.1c-1.1,0-1.8,0.2-2.4,0.5C2.8,0.8,2.2,1.2,1.7,1.7C1.2,2.2,0.8,2.8,0.5,3.5 C0.3,4.1,0.1,4.8,0.1,5.9C0,6.9,0,7.3,0,10c0,2.7,0,3.1,0.1,4.1c0,1.1,0.2,1.8,0.5,2.4c0.3,0.7,0.6,1.2,1.2,1.8 c0.6,0.6,1.1,0.9,1.8,1.2c0.6,0.2,1.4,0.4,2.4,0.5C6.9,20,7.3,20,10,20s3.1,0,4.1-0.1c1.1-0.1,1.8-0.2,2.4-0.5 c0.7-0.3,1.3-0.6,1.8-1.2c0.6-0.6,0.9-1.1,1.2-1.8c0.2-0.6,0.4-1.4,0.5-2.4c0-1.1,0.1-1.4,0.1-4.1s0-3.1-0.1-4.1 c0-1.1-0.2-1.8-0.5-2.4c-0.3-0.7-0.6-1.3-1.2-1.8c-0.5-0.5-1.1-0.9-1.8-1.2c-0.6-0.2-1.4-0.4-2.4-0.5C13.1,0,12.7,0,10,0L10,0L10,0z  M9.1,1.8H10c2.7,0,3,0,4,0.1c1,0,1.5,0.2,1.9,0.3C16.4,2.4,16.7,2.6,17,3c0.3,0.3,0.6,0.7,0.7,1.1C17.9,4.5,18.1,5,18.1,6 c0,1.1,0.1,1.4,0.1,4s0,3-0.1,4c0,1-0.2,1.5-0.3,1.9c-0.2,0.4-0.4,0.8-0.7,1.1c-0.4,0.4-0.7,0.6-1.1,0.7c-0.4,0.1-0.9,0.3-1.9,0.3 c-1.1,0-1.4,0.1-4,0.1s-3,0-4-0.1c-1,0-1.5-0.2-1.9-0.3C3.7,17.6,3.3,17.4,3,17c-0.3-0.3-0.6-0.7-0.8-1.1C2.1,15.5,1.9,15,1.9,14 c0-1.1-0.1-1.4-0.1-4c0-2.7,0-3,0.1-4c0-1,0.2-1.5,0.3-1.9C2.4,3.6,2.6,3.3,3,2.9c0.3-0.3,0.7-0.6,1.2-0.7C4.5,2.1,5,1.9,6,1.9 C6.9,1.8,7.2,1.8,9.1,1.8C9.1,1.8,9.1,1.8,9.1,1.8z"/> <g> <path d="M8,8.9c0.3-0.2,0.5-0.3,0.9-0.2c0.3,0.1,0.5,0.4,0.5,0.7c0,0.3-0.1,0.6-0.3,0.8c-0.3,0.3-0.7,0.4-1.2,0.5 c-0.3,0.1-0.8,0.1-1.6,0.1c-0.5,0-1.1-0.2-1.6-0.5C3.8,9.6,3.3,8.5,3.2,7.2c0-0.1,0-0.2,0-0.4c0.1-1.5,0.6-2.5,1.5-3.1 c0.6-0.4,1.2-0.5,1.8-0.5c0.5,0,0.9,0.1,1.3,0.3c1,0.6,1.5,1.7,1.5,3.2V7c0,0.1,0,0.2-0.1,0.3C9.2,7.7,8.9,7.8,8.5,7.8H5 C5.2,8.6,5.6,9,6.3,9.1h0.3C7.3,9.1,7.8,9,8,8.9z M6.4,4.9H6.3C6.1,4.9,5.9,5,5.7,5.1C5.3,5.3,5.1,5.7,5,6.1h2.6V6.1 C7.6,5.5,7.3,5.2,7,5C6.9,4.9,6.7,4.9,6.4,4.9L6.4,4.9z"/> <path d="M10.8,6.4c0-0.7,0.2-1.4,0.7-2c0.5-0.7,1.3-1,2.3-1c1.5,0.1,2.5,0.8,2.8,2.1c0.1,0.3,0.1,0.6,0.1,0.9V10 c0,0.3-0.2,0.6-0.5,0.7c-0.1,0.1-0.2,0.1-0.4,0.1c-0.4,0-0.6-0.2-0.7-0.5c0-0.1-0.1-0.2-0.1-0.3V6.4c0-0.8-0.5-1.2-1.3-1.3 c-0.7,0-1.2,0.3-1.3,1c0,0.1,0,0.2,0,0.3V10c0,0.3-0.2,0.6-0.5,0.7c-0.1,0.1-0.2,0.1-0.3,0.1c-0.4,0-0.6-0.2-0.8-0.5 c0-0.1-0.1-0.2-0.1-0.3V6.4z"/> </g> <g> <path d="M5.4,16.8c-0.1,0.1-0.2,0.1-0.3,0.1C5,17,4.8,17,4.5,17h0l-0.3-0.1c0,0,0,0-0.1,0c-0.2-0.1-0.3-0.2-0.4-0.3 c-0.1-0.1-0.1-0.2,0-0.3c0.1-0.1,0.1-0.2,0.3-0.2c0.1,0,0.2,0.1,0.3,0.2l0,0l0.1,0.1c0.1,0,0.1,0,0.2,0c0.2,0,0.4,0,0.5-0.1 c0.1-0.1,0.1-0.2,0.1-0.5c-0.2,0.1-0.3,0.1-0.5,0.1c-0.2,0-0.4-0.1-0.6-0.2L4,15.6c-0.3-0.3-0.5-0.7-0.5-1.2c0-0.1,0-0.2,0-0.3 c0.1-0.4,0.2-0.7,0.5-0.9C4.3,13.1,4.5,13,4.7,13s0.5,0.1,0.6,0.2c0.3,0.2,0.4,0.6,0.4,1.1v1.2C5.8,16.2,5.7,16.6,5.4,16.8z M4.7,13.7C4.7,13.7,4.7,13.7,4.7,13.7c-0.1,0-0.2,0-0.3,0.1c-0.2,0.1-0.3,0.4-0.3,0.7v0c0,0.5,0.2,0.7,0.5,0.8 c0.1,0,0.2,0,0.3-0.1l0.1,0c0.1-0.1,0.2-0.2,0.2-0.4v-0.4c0-0.3-0.1-0.5-0.3-0.6C4.9,13.7,4.8,13.7,4.7,13.7L4.7,13.7z"/> <path d="M7.7,15.6c0,0,0,0.1,0,0.1c-0.1,0.1-0.2,0.2-0.3,0.2c0,0-0.1,0-0.1,0c-0.1-0.1-0.2-0.1-0.2-0.3v-3.3c0-0.1,0-0.1,0-0.1 C7.2,12,7.3,12,7.4,12c0,0,0.1,0,0.1,0c0.1,0.1,0.2,0.2,0.2,0.3V15.6z"/> <path d="M9.6,12c0.1,0.1,0.1,0.2,0.1,0.3v0c0,0.1-0.1,0.2-0.2,0.3c-0.1,0.1-0.2,0.1-0.3,0c-0.1-0.1-0.2-0.2-0.2-0.3v0 c0,0,0-0.1,0-0.1c0-0.1,0.1-0.2,0.3-0.2C9.4,11.9,9.5,11.9,9.6,12z M9.6,13.1c0.1,0.1,0.1,0.1,0.1,0.2v2.2c0,0.1-0.1,0.2-0.2,0.3 c-0.1,0.1-0.2,0.1-0.3,0c-0.1-0.1-0.2-0.2-0.2-0.3v-2.2c0,0,0-0.1,0-0.1c0-0.1,0.1-0.2,0.3-0.2C9.5,13,9.5,13.1,9.6,13.1z"/> <path d="M11.9,13c0.2,0,0.4,0,0.6,0.1c0.3,0.2,0.4,0.3,0.3,0.5c0,0.1-0.1,0.2-0.2,0.2c-0.1,0-0.2,0-0.3-0.1 c-0.1-0.2-0.3-0.2-0.5-0.2c0,0,0,0,0,0c-0.1,0-0.2,0.1-0.3,0.2c0,0.1,0,0.1,0,0.2c0.1,0.1,0.3,0.1,0.5,0.1c0.1,0,0.2,0,0.3,0 c0.3,0,0.5,0.2,0.6,0.4c0.1,0.1,0.2,0.3,0.1,0.5c0,0.3-0.1,0.5-0.3,0.6c-0.1,0.1-0.2,0.1-0.3,0.1c-0.4,0.1-0.8,0.1-1.1,0 c-0.3-0.1-0.4-0.3-0.5-0.5c0-0.1,0-0.2,0.2-0.3c0.1-0.1,0.2-0.1,0.3,0c0,0,0,0,0,0c0.1,0.2,0.4,0.2,0.7,0.2c0.1,0,0.2-0.1,0.3-0.2 c0-0.1,0-0.1,0-0.2c-0.1-0.1-0.2-0.1-0.4-0.1c-0.4,0-0.7-0.1-0.9-0.2c-0.2-0.2-0.3-0.4-0.3-0.7c0-0.2,0.1-0.3,0.2-0.5 C11.1,13.1,11.4,13,11.9,13L11.9,13z"/> <path d="M14.2,15.6v-3.3c0-0.1,0.1-0.2,0.2-0.3c0,0,0.1,0,0.1,0c0.1,0,0.2,0,0.2,0.1c0.1,0.1,0.1,0.1,0.1,0.2v0.9 c0.2-0.1,0.3-0.1,0.5-0.1c0.4,0,0.7,0.1,0.9,0.4c0.2,0.2,0.3,0.5,0.3,0.7v1.4c0,0.1,0,0.2-0.2,0.3c-0.1,0.1-0.2,0.1-0.3,0 c-0.1-0.1-0.2-0.2-0.2-0.3v-1.4c0-0.3-0.1-0.4-0.3-0.5c-0.1,0-0.1,0-0.2,0c-0.2,0-0.3,0.1-0.4,0.2c-0.1,0.1-0.1,0.2-0.1,0.3v1.4 c0,0.2-0.1,0.3-0.2,0.3c-0.1,0-0.2,0-0.3-0.1C14.2,15.7,14.2,15.6,14.2,15.6z"/> </g> </svg>