<svg xmlns="http://www.w3.org/2000/svg" width="18.1" height="36.44" viewBox="0 0 18.1 36.44"><path d="M4.31,5.44V16.7a3.39,3.39,0,0,0,.42,1.95,2,2,0,0,0,1.63.56h.31V22.5H6.36a5,5,0,0,1-3.88-1.38,6.15,6.15,0,0,1-1.23-4.19V5.44Z"/><path d="M12.66,19.1a2.1,2.1,0,0,0,1.12-.45,1.45,1.45,0,0,0,.38-1.1,7.26,7.26,0,0,1-1,.17c-.35,0-.69.05-1,.05a5.54,5.54,0,0,1-3.36-.89A3.29,3.29,0,0,1,7.57,14a6.22,6.22,0,0,1,.55-2.54A5.45,5.45,0,0,1,9.68,9.43a3.74,3.74,0,0,1,2.4-.81,3.87,3.87,0,0,1,2.27.66,5,5,0,0,1,1.55,1.77,9.39,9.39,0,0,1,.88,2.49,14.08,14.08,0,0,1,.29,2.83,10.54,10.54,0,0,1-.38,3.08,4,4,0,0,1-1.15,1.87,4.43,4.43,0,0,1-2,.92,14,14,0,0,1-2.88.26H6.18V19.21h4.64A11.85,11.85,0,0,0,12.66,19.1ZM13.86,5,11.75,7.12,9.63,5l2.12-2.11Zm-.75,9.89c.33,0,.65-.1,1-.17a7.8,7.8,0,0,0-.23-1,4.13,4.13,0,0,0-.4-1,2.45,2.45,0,0,0-.58-.72,1.28,1.28,0,0,0-.82-.27,1.37,1.37,0,0,0-.93.33,2,2,0,0,0-.56.81,2.77,2.77,0,0,0-.18,1,.81.81,0,0,0,.5.87,3.48,3.48,0,0,0,1.26.19A7.89,7.89,0,0,0,13.11,14.89Z"/></svg>