<?xml version="1.0" encoding="utf-8"?>
<!-- Generator: Adobe Illustrator 26.3.1, SVG Export Plug-In . SVG Version: 6.00 Build 0)  -->
<svg version="1.1" id="Layer_1" xmlns="http://www.w3.org/2000/svg" xmlns:xlink="http://www.w3.org/1999/xlink" x="0px" y="0px"
	 viewBox="0 0 20 20" style="enable-background:new 0 0 20 20;" xml:space="preserve">
<path d="M10,0C7.3,0,6.9,0,5.9,0.1c-1.1,0-1.8,0.2-2.4,0.5C2.8,0.8,2.2,1.2,1.7,1.7C1.2,2.2,0.8,2.8,0.5,3.5
	C0.3,4.1,0.1,4.8,0.1,5.9C0,6.9,0,7.3,0,10c0,2.7,0,3.1,0.1,4.1c0,1.1,0.2,1.8,0.5,2.4c0.3,0.7,0.6,1.2,1.2,1.8
	c0.6,0.6,1.1,0.9,1.8,1.2c0.6,0.2,1.4,0.4,2.4,0.5C6.9,20,7.3,20,10,20s3.1,0,4.1-0.1c1.1-0.1,1.8-0.2,2.4-0.5
	c0.7-0.3,1.3-0.6,1.8-1.2c0.6-0.6,0.9-1.1,1.2-1.8c0.2-0.6,0.4-1.4,0.5-2.4c0-1.1,0.1-1.4,0.1-4.1s0-3.1-0.1-4.1
	c0-1.1-0.2-1.8-0.5-2.4c-0.3-0.7-0.6-1.3-1.2-1.8c-0.5-0.5-1.1-0.9-1.8-1.2c-0.6-0.2-1.4-0.4-2.4-0.5C13.1,0,12.7,0,10,0L10,0L10,0z
	 M9.1,1.8H10c2.7,0,3,0,4,0.1c1,0,1.5,0.2,1.9,0.3C16.4,2.4,16.7,2.6,17,3c0.3,0.3,0.6,0.7,0.7,1.1C17.9,4.5,18.1,5,18.1,6
	c0,1.1,0.1,1.4,0.1,4s0,3-0.1,4c0,1-0.2,1.5-0.3,1.9c-0.2,0.4-0.4,0.8-0.7,1.1c-0.4,0.4-0.7,0.6-1.1,0.7c-0.4,0.1-0.9,0.3-1.9,0.3
	c-1.1,0-1.4,0.1-4,0.1s-3,0-4-0.1c-1,0-1.5-0.2-1.9-0.3C3.7,17.6,3.3,17.4,3,17c-0.3-0.3-0.6-0.7-0.8-1.1C2.1,15.5,1.9,15,1.9,14
	c0-1.1-0.1-1.4-0.1-4c0-2.7,0-3,0.1-4c0-1,0.2-1.5,0.3-1.9C2.4,3.6,2.6,3.3,3,2.9c0.3-0.3,0.7-0.6,1.2-0.7C4.5,2.1,5,1.9,6,1.9
	C6.9,1.8,7.2,1.8,9.1,1.8C9.1,1.8,9.1,1.8,9.1,1.8z"/>
<g>
	<path d="M5.5,4.1v4.4c0,0.3,0,0.6,0.1,0.7s0.3,0.2,0.6,0.2h0.1v1.5H6.3c-0.7,0-1.3-0.2-1.6-0.6s-0.5-1-0.5-1.7V4.1H5.5z"/>
	<path d="M9.1,9.4v1.5h-3V9.4H9.1z"/>
	<path d="M11.9,9.4v1.5h-3V9.4H11.9z"/>
	<path d="M14.2,9.4c0.2,0,0.3-0.1,0.4-0.1s0.2-0.2,0.2-0.3c-0.1,0-0.2,0-0.3,0c-0.1,0-0.2,0-0.4,0c-0.6,0-1-0.1-1.4-0.4
		S12.2,8,12.2,7.4c0-0.4,0.1-0.7,0.2-1c0.2-0.3,0.4-0.6,0.7-0.8s0.6-0.3,1-0.3c0.4,0,0.7,0.1,1,0.3s0.5,0.4,0.6,0.7s0.3,0.6,0.4,1
		s0.1,0.8,0.1,1.2c0,0.5-0.1,0.9-0.2,1.3s-0.3,0.6-0.5,0.8c-0.2,0.2-0.5,0.3-0.8,0.4s-0.7,0.1-1.2,0.1h-1.8V9.4h1.9
		C13.8,9.4,14,9.4,14.2,9.4z M14.8,3.8l-0.9,0.9L13,3.8l0.9-0.9L14.8,3.8z M14.4,7.7c0.1,0,0.2,0,0.4-0.1c0-0.1,0-0.2-0.1-0.3
		S14.6,7.1,14.5,7c-0.1-0.1-0.1-0.2-0.2-0.2c-0.1-0.1-0.2-0.1-0.3-0.1c-0.1,0-0.2,0-0.3,0.1c-0.1,0.1-0.2,0.2-0.2,0.3
		c0,0.1-0.1,0.2-0.1,0.3c0,0.2,0.1,0.3,0.2,0.3c0.1,0,0.3,0.1,0.4,0.1C14.2,7.7,14.3,7.7,14.4,7.7z"/>
</g>
<g>
	<path d="M4.8,16.4c-0.3-0.2-0.5-0.4-0.7-0.8c-0.1-0.3-0.2-0.7-0.2-1c0-0.2,0-0.4,0.1-0.6c0-0.2,0.1-0.5,0.2-0.7l0.7,0.3
		c-0.1,0.2-0.1,0.4-0.2,0.6c0,0.2,0,0.4,0,0.5c0,0.2,0,0.4,0.1,0.6c0.1,0.2,0.2,0.3,0.4,0.5c0.2,0.1,0.5,0.2,0.8,0.2
		c0.4,0,0.6,0,0.9-0.1c0.2-0.1,0.4-0.2,0.5-0.3c0.1-0.1,0.2-0.2,0.2-0.3c0-0.1,0-0.2-0.1-0.2S7.2,15,7.1,15H6.5
		c-0.1,0-0.1,0-0.1-0.1c0,0,0-0.1-0.1-0.2l-0.1-0.5c0,0,0-0.1,0-0.1c0,0,0,0,0.1,0h2V15h0c0,0.1,0,0.1,0,0.1c0,0,0,0.1,0,0.1
		c0,0.2,0,0.4-0.1,0.5s-0.2,0.3-0.4,0.5S7.3,16.5,7,16.6s-0.6,0.1-1,0.1C5.5,16.7,5.1,16.6,4.8,16.4z"/>
	<path d="M9.9,14.8c-0.2-0.1-0.3-0.2-0.4-0.3c-0.1,0.1-0.3,0.3-0.4,0.3C9,14.9,8.8,15,8.5,15H8.2v-0.9h0.3c0.2,0,0.3,0,0.4,0
		C9,14,9.1,14,9.1,13.9c0.1-0.1,0.1-0.2,0.1-0.4c0,0,0-0.1,0-0.2c0-0.1,0-0.2,0-0.2c0-0.1,0-0.2,0-0.3l0.8-0.1l0.1,0.8
		c0,0.2,0.1,0.3,0.2,0.4s0.2,0.1,0.4,0.1c0.2,0,0.4,0,0.4-0.1c0.1-0.1,0.1-0.3,0.1-0.5c0,0,0-0.1,0-0.2c0-0.1,0-0.2,0-0.2
		c0-0.1,0-0.2,0-0.3l0.8-0.1l0.1,0.8c0,0.2,0,0.3,0.1,0.4c0.1,0.1,0.2,0.1,0.4,0.1c0.1,0,0.2,0,0.2-0.1c0.1-0.1,0.1-0.1,0.1-0.2
		c0-0.1,0-0.2,0-0.3c0-0.1,0-0.2,0-0.4s0-0.2-0.1-0.4c0-0.1,0-0.2-0.1-0.3l0.8-0.2c0,0.2,0.1,0.3,0.1,0.5c0,0.2,0,0.4,0,0.6
		c0,0.3,0,0.5-0.1,0.8c-0.1,0.2-0.2,0.4-0.4,0.6c-0.2,0.1-0.4,0.2-0.7,0.2c-0.2,0-0.4,0-0.5-0.1s-0.3-0.2-0.3-0.3
		c-0.1,0.1-0.3,0.3-0.4,0.3c-0.2,0.1-0.3,0.1-0.5,0.1C10.3,15,10.1,14.9,9.9,14.8z"/>
	<path d="M13.6,16c0.3-0.1,0.6-0.2,0.9-0.3c0.2-0.1,0.4-0.3,0.5-0.5c0.1-0.2,0.2-0.5,0.2-0.8c0-0.2,0-0.4-0.1-0.7
		c-0.1-0.2-0.1-0.5-0.2-0.7l0.8-0.3c0.1,0.2,0.2,0.5,0.2,0.8c0,0.3,0.1,0.5,0.1,0.8c0,0.4-0.1,0.8-0.2,1.2c-0.2,0.3-0.4,0.6-0.7,0.8
		c-0.3,0.2-0.7,0.4-1.1,0.5L13.6,16z"/>
</g>
</svg>
