<svg xmlns="http://www.w3.org/2000/svg" version="1.1" xmlns:xlink="http://www.w3.org/1999/xlink" xmlns:svgjs="http://svgjs.dev/svgjs" viewBox="0 0 800 800" opacity="0.5" filter="url(#blur)"><filter id="blur"><feGaussianBlur in="SourceGraphic" stdDeviation="8"/></filter><g fill="none" stroke-width="2" stroke="#4169e1" stroke-linecap="round" stroke-dasharray="0 3.5"><line x1="306.5" y1="400" x2="493.5" y2="400" transform="rotate(0, 400, 400)" opacity="1.00"></line><line x1="208" y1="400" x2="592" y2="400" transform="rotate(4, 400, 400)" opacity="0.75"></line><line x1="133.5" y1="400" x2="666.5" y2="400" transform="rotate(8, 400, 400)" opacity="0.13"></line><line x1="47" y1="400" x2="753" y2="400" transform="rotate(12, 400, 400)" opacity="0.95"></line><line x1="73.5" y1="400" x2="726.5" y2="400" transform="rotate(16, 400, 400)" opacity="0.34"></line><line x1="119" y1="400" x2="681" y2="400" transform="rotate(20, 400, 400)" opacity="0.47"></line><line x1="36" y1="400" x2="764" y2="400" transform="rotate(24, 400, 400)" opacity="0.65"></line><line x1="194" y1="400" x2="606" y2="400" transform="rotate(28, 400, 400)" opacity="0.43"></line><line x1="179.5" y1="400" x2="620.5" y2="400" transform="rotate(32, 400, 400)" opacity="0.88"></line><line x1="294.5" y1="400" x2="505.5" y2="400" transform="rotate(36, 400, 400)" opacity="0.85"></line><line x1="174" y1="400" x2="626" y2="400" transform="rotate(40, 400, 400)" opacity="0.88"></line><line x1="55" y1="400" x2="745" y2="400" transform="rotate(44, 400, 400)" opacity="0.10"></line><line x1="63.5" y1="400" x2="736.5" y2="400" transform="rotate(48, 400, 400)" opacity="0.38"></line><line x1="329" y1="400" x2="471" y2="400" transform="rotate(52, 400, 400)" opacity="0.41"></line><line x1="167" y1="400" x2="633" y2="400" transform="rotate(56, 400, 400)" opacity="0.90"></line><line x1="275.5" y1="400" x2="524.5" y2="400" transform="rotate(60, 400, 400)" opacity="0.15"></line><line x1="110.5" y1="400" x2="689.5" y2="400" transform="rotate(64, 400, 400)" opacity="0.12"></line><line x1="42.5" y1="400" x2="757.5" y2="400" transform="rotate(68, 400, 400)" opacity="0.12"></line><line x1="67" y1="400" x2="733" y2="400" transform="rotate(72, 400, 400)" opacity="0.58"></line><line x1="-4.5" y1="400" x2="804.5" y2="400" transform="rotate(76, 400, 400)" opacity="0.11"></line><line x1="3.5" y1="400" x2="796.5" y2="400" transform="rotate(80, 400, 400)" opacity="0.17"></line><line x1="287.5" y1="400" x2="512.5" y2="400" transform="rotate(84, 400, 400)" opacity="0.43"></line><line x1="273.5" y1="400" x2="526.5" y2="400" transform="rotate(88, 400, 400)" opacity="0.48"></line><line x1="160.5" y1="400" x2="639.5" y2="400" transform="rotate(92, 400, 400)" opacity="0.80"></line><line x1="174" y1="400" x2="626" y2="400" transform="rotate(96, 400, 400)" opacity="0.17"></line><line x1="59" y1="400" x2="741" y2="400" transform="rotate(100, 400, 400)" opacity="0.50"></line><line x1="18" y1="400" x2="782" y2="400" transform="rotate(104, 400, 400)" opacity="0.91"></line><line x1="272.5" y1="400" x2="527.5" y2="400" transform="rotate(108, 400, 400)" opacity="0.58"></line><line x1="261.5" y1="400" x2="538.5" y2="400" transform="rotate(112, 400, 400)" opacity="0.97"></line><line x1="-6" y1="400" x2="806" y2="400" transform="rotate(116, 400, 400)" opacity="0.89"></line><line x1="83.5" y1="400" x2="716.5" y2="400" transform="rotate(120, 400, 400)" opacity="0.58"></line><line x1="257" y1="400" x2="543" y2="400" transform="rotate(124, 400, 400)" opacity="0.82"></line><line x1="159.5" y1="400" x2="640.5" y2="400" transform="rotate(128, 400, 400)" opacity="0.33"></line><line x1="270" y1="400" x2="530" y2="400" transform="rotate(132, 400, 400)" opacity="0.57"></line><line x1="6" y1="400" x2="794" y2="400" transform="rotate(136, 400, 400)" opacity="0.31"></line><line x1="46.5" y1="400" x2="753.5" y2="400" transform="rotate(140, 400, 400)" opacity="0.73"></line><line x1="188" y1="400" x2="612" y2="400" transform="rotate(144, 400, 400)" opacity="0.89"></line><line x1="186" y1="400" x2="614" y2="400" transform="rotate(148, 400, 400)" opacity="0.83"></line><line x1="127.5" y1="400" x2="672.5" y2="400" transform="rotate(152, 400, 400)" opacity="0.10"></line><line x1="94" y1="400" x2="706" y2="400" transform="rotate(156, 400, 400)" opacity="0.91"></line><line x1="244" y1="400" x2="556" y2="400" transform="rotate(160, 400, 400)" opacity="0.46"></line><line x1="94.5" y1="400" x2="705.5" y2="400" transform="rotate(164, 400, 400)" opacity="0.36"></line><line x1="185.5" y1="400" x2="614.5" y2="400" transform="rotate(168, 400, 400)" opacity="0.55"></line><line x1="141" y1="400" x2="659" y2="400" transform="rotate(172, 400, 400)" opacity="0.40"></line><line x1="110" y1="400" x2="690" y2="400" transform="rotate(176, 400, 400)" opacity="0.11"></line><line x1="317.5" y1="400" x2="482.5" y2="400" transform="rotate(180, 400, 400)" opacity="0.77"></line><line x1="123" y1="400" x2="677" y2="400" transform="rotate(184, 400, 400)" opacity="0.41"></line><line x1="-15.5" y1="400" x2="815.5" y2="400" transform="rotate(188, 400, 400)" opacity="0.86"></line><line x1="183" y1="400" x2="617" y2="400" transform="rotate(192, 400, 400)" opacity="0.25"></line><line x1="178" y1="400" x2="622" y2="400" transform="rotate(196, 400, 400)" opacity="0.19"></line><line x1="271" y1="400" x2="529" y2="400" transform="rotate(200, 400, 400)" opacity="0.45"></line><line x1="78" y1="400" x2="722" y2="400" transform="rotate(204, 400, 400)" opacity="0.85"></line><line x1="118.5" y1="400" x2="681.5" y2="400" transform="rotate(208, 400, 400)" opacity="0.31"></line><line x1="89.5" y1="400" x2="710.5" y2="400" transform="rotate(212, 400, 400)" opacity="0.89"></line><line x1="237.5" y1="400" x2="562.5" y2="400" transform="rotate(216, 400, 400)" opacity="0.15"></line><line x1="323" y1="400" x2="477" y2="400" transform="rotate(220, 400, 400)" opacity="0.72"></line><line x1="178" y1="400" x2="622" y2="400" transform="rotate(224, 400, 400)" opacity="0.40"></line><line x1="157.5" y1="400" x2="642.5" y2="400" transform="rotate(228, 400, 400)" opacity="0.98"></line><line x1="-16" y1="400" x2="816" y2="400" transform="rotate(232, 400, 400)" opacity="0.57"></line><line x1="321.5" y1="400" x2="478.5" y2="400" transform="rotate(236, 400, 400)" opacity="0.39"></line><line x1="195.5" y1="400" x2="604.5" y2="400" transform="rotate(240, 400, 400)" opacity="0.74"></line><line x1="66" y1="400" x2="734" y2="400" transform="rotate(244, 400, 400)" opacity="0.51"></line><line x1="283" y1="400" x2="517" y2="400" transform="rotate(248, 400, 400)" opacity="0.59"></line><line x1="-9.5" y1="400" x2="809.5" y2="400" transform="rotate(252, 400, 400)" opacity="0.21"></line><line x1="312.5" y1="400" x2="487.5" y2="400" transform="rotate(256, 400, 400)" opacity="0.94"></line><line x1="31" y1="400" x2="769" y2="400" transform="rotate(260, 400, 400)" opacity="0.16"></line><line x1="126" y1="400" x2="674" y2="400" transform="rotate(264, 400, 400)" opacity="0.41"></line><line x1="66" y1="400" x2="734" y2="400" transform="rotate(268, 400, 400)" opacity="0.40"></line><line x1="202" y1="400" x2="598" y2="400" transform="rotate(272, 400, 400)" opacity="0.27"></line><line x1="51.5" y1="400" x2="748.5" y2="400" transform="rotate(276, 400, 400)" opacity="0.75"></line><line x1="292" y1="400" x2="508" y2="400" transform="rotate(280, 400, 400)" opacity="0.64"></line><line x1="244.5" y1="400" x2="555.5" y2="400" transform="rotate(284, 400, 400)" opacity="0.73"></line><line x1="-3" y1="400" x2="803" y2="400" transform="rotate(288, 400, 400)" opacity="0.62"></line><line x1="309" y1="400" x2="491" y2="400" transform="rotate(292, 400, 400)" opacity="0.65"></line><line x1="282.5" y1="400" x2="517.5" y2="400" transform="rotate(296, 400, 400)" opacity="0.12"></line><line x1="76.5" y1="400" x2="723.5" y2="400" transform="rotate(300, 400, 400)" opacity="0.13"></line><line x1="153" y1="400" x2="647" y2="400" transform="rotate(304, 400, 400)" opacity="0.36"></line><line x1="182" y1="400" x2="618" y2="400" transform="rotate(308, 400, 400)" opacity="0.66"></line><line x1="204.5" y1="400" x2="595.5" y2="400" transform="rotate(312, 400, 400)" opacity="0.87"></line><line x1="92.5" y1="400" x2="707.5" y2="400" transform="rotate(316, 400, 400)" opacity="0.62"></line><line x1="-19.5" y1="400" x2="819.5" y2="400" transform="rotate(320, 400, 400)" opacity="0.75"></line><line x1="1" y1="400" x2="799" y2="400" transform="rotate(324, 400, 400)" opacity="0.32"></line><line x1="-19.5" y1="400" x2="819.5" y2="400" transform="rotate(328, 400, 400)" opacity="0.74"></line><line x1="204.5" y1="400" x2="595.5" y2="400" transform="rotate(332, 400, 400)" opacity="0.66"></line><line x1="197" y1="400" x2="603" y2="400" transform="rotate(336, 400, 400)" opacity="0.40"></line><line x1="53" y1="400" x2="747" y2="400" transform="rotate(340, 400, 400)" opacity="0.89"></line><line x1="0.5" y1="400" x2="799.5" y2="400" transform="rotate(344, 400, 400)" opacity="0.64"></line><line x1="178" y1="400" x2="622" y2="400" transform="rotate(348, 400, 400)" opacity="0.99"></line><line x1="98" y1="400" x2="702" y2="400" transform="rotate(352, 400, 400)" opacity="0.19"></line><line x1="124.5" y1="400" x2="675.5" y2="400" transform="rotate(356, 400, 400)" opacity="0.91"></line><line x1="130" y1="400" x2="670" y2="400" transform="rotate(360, 400, 400)" opacity="0.52"></line><line x1="5.5" y1="400" x2="794.5" y2="400" transform="rotate(364, 400, 400)" opacity="0.87"></line><line x1="247.5" y1="400" x2="552.5" y2="400" transform="rotate(368, 400, 400)" opacity="0.58"></line><line x1="286" y1="400" x2="514" y2="400" transform="rotate(372, 400, 400)" opacity="0.85"></line><line x1="222" y1="400" x2="578" y2="400" transform="rotate(376, 400, 400)" opacity="0.34"></line><line x1="229.5" y1="400" x2="570.5" y2="400" transform="rotate(380, 400, 400)" opacity="0.41"></line></g></svg>