<svg xmlns="http://www.w3.org/2000/svg" width="78.4" height="20" viewBox="0 0 78.4 20"><path d="M73.2,11.49s-1.5-.73-1.76-.83a.89.89,0,0,0-.34-.07.59.59,0,0,0-.49.29,11.34,11.34,0,0,1-.72.88s0,.05-.06.05l-.3-.12A7.77,7.77,0,0,1,66.61,9.1a.15.15,0,0,1,0-.06s.06-.07.08-.1a3.53,3.53,0,0,0,.25-.28L67,8.52a1.82,1.82,0,0,0,.24-.38l0-.07a.7.7,0,0,0,0-.64c0-.06-.65-1.55-.72-1.71-.15-.37-.36-.55-.65-.55h-.11a3.25,3.25,0,0,0-1.21.31,2.53,2.53,0,0,0-.95,2.16,4.68,4.68,0,0,0,1,2.56l0,.06a9.56,9.56,0,0,0,4.08,3.54,6.71,6.71,0,0,0,2.46.63h0a3.88,3.88,0,0,0,.4,0h.07a2.54,2.54,0,0,0,1.8-1.27,2,2,0,0,0,.12-1.33A1,1,0,0,0,73.2,11.49Z"/><path d="M68.58,0a9.79,9.79,0,0,0-9.82,9.75,9.68,9.68,0,0,0,1.34,4.93l-1.68,5a.23.23,0,0,0,.06.26.25.25,0,0,0,.18.08h.08l5.19-1.65A9.84,9.84,0,0,0,78.4,9.75,9.79,9.79,0,0,0,68.58,0Zm0,17.47a7.73,7.73,0,0,1-4.28-1.28.28.28,0,0,0-.15,0h-.07l-2.6.83.84-2.48a.29.29,0,0,0,0-.24A7.57,7.57,0,0,1,60.8,9.75a7.78,7.78,0,1,1,7.78,7.72Z"/><path d="M4.32,15.64a3.53,3.53,0,0,1-.5.28A4.48,4.48,0,0,1,2.57,16h-.1l-.55-.12-.19,0a1.37,1.37,0,0,1-.82-.62.59.59,0,0,1,0-.63.57.57,0,0,1,.55-.33.61.61,0,0,1,.55.31l0-.07.29.14a1.91,1.91,0,0,0,.36.07,2,2,0,0,0,.91-.12c.16-.13.25-.48.29-1.05a3.93,3.93,0,0,1-1,.24,2.1,2.1,0,0,1-1.18-.39l-.19-.14A2.91,2.91,0,0,1,.5,11a3.83,3.83,0,0,1,.05-.6A2.55,2.55,0,0,1,1.63,8.51,2.33,2.33,0,0,1,3,8.12a2,2,0,0,1,1.3.44,2.78,2.78,0,0,1,.84,2.2v2.45A3.2,3.2,0,0,1,4.32,15.64ZM2.88,9.4l-.07,0a1,1,0,0,0-.48.14A1.62,1.62,0,0,0,1.78,11v.07c0,.91.36,1.42,1,1.51a1.39,1.39,0,0,0,.55-.16l.12,0a.89.89,0,0,0,.36-.84v-.77c0-.67-.17-1.08-.5-1.24a.71.71,0,0,0-.41-.12Z"/><path d="M9.14,12.37a.64.64,0,0,1,.65-.12.62.62,0,0,1,.36.53.53.53,0,0,1-.24.58,1.94,1.94,0,0,1-.84.4,5.57,5.57,0,0,1-1.2.05A1.94,1.94,0,0,1,6.7,13.4a2.84,2.84,0,0,1-1.13-2.32.61.61,0,0,1,0-.27A2.73,2.73,0,0,1,6.7,8.48,2.22,2.22,0,0,1,8,8.08a2,2,0,0,1,1,.24,2.6,2.6,0,0,1,1.15,2.4V11a.52.52,0,0,1-.05.24.55.55,0,0,1-.57.38H6.91a1.08,1.08,0,0,0,1,.94h.22A2.21,2.21,0,0,0,9.14,12.37Zm-1.2-3H7.87a1,1,0,0,0-.48.15,1.2,1.2,0,0,0-.48.79h2v-.05a1,1,0,0,0-.48-.79A.76.76,0,0,0,8,9.37Z"/><path d="M11.88,5.87a.65.65,0,0,1,.48.19.57.57,0,0,1,.17.46V8.17h.79a.62.62,0,0,1,.58.34.58.58,0,0,1,0,.62.56.56,0,0,1-.58.31h-.79v2.5a.69.69,0,0,0,.12.48.39.39,0,0,0,.24.12.73.73,0,0,0,.48,0,.62.62,0,0,1,.67.16.61.61,0,0,1,.14.63.58.58,0,0,1-.45.45l-.46.08a1.78,1.78,0,0,1-1.58-.58,2,2,0,0,1-.43-1.32V9.44h-.39a.52.52,0,0,1-.55-.31.54.54,0,0,1,0-.62.57.57,0,0,1,.55-.34h.39V6.52a.67.67,0,0,1,.33-.6A.74.74,0,0,1,11.88,5.87Z"/><path d="M18.79,6a.7.7,0,0,1,.22.51v.09a.64.64,0,0,1-.31.56.63.63,0,0,1-.65,0,.62.62,0,0,1-.31-.56V6.47a.54.54,0,0,1,0-.22.59.59,0,0,1,.53-.43A.57.57,0,0,1,18.79,6Zm0,2.36a.64.64,0,0,1,.19.45v4.42a.62.62,0,0,1-.31.55.59.59,0,0,1-.65,0,.61.61,0,0,1-.31-.55V8.77a.48.48,0,0,1,.07-.26.54.54,0,0,1,.55-.39A.6.6,0,0,1,18.82,8.32Z"/><path d="M19.54,10.48A2.26,2.26,0,0,1,20,9a2.09,2.09,0,0,1,1.75-.77A2.22,2.22,0,0,1,23.93,9.8a3.6,3.6,0,0,1,.09.68v2.73a.56.56,0,0,1-.36.55.56.56,0,0,1-.26.08.54.54,0,0,1-.55-.39.69.69,0,0,1-.05-.24V10.48a1,1,0,0,0-1-1,.9.9,0,0,0-1,.77.89.89,0,0,0,0,.22v2.73a.55.55,0,0,1-.38.55.36.36,0,0,1-.24.08.6.6,0,0,1-.58-.39.67.67,0,0,1,0-.24Z"/><path d="M29.18,5.87a.62.62,0,0,1,.48.19.54.54,0,0,1,.17.46V8.17h.79a.62.62,0,0,1,.58.34.54.54,0,0,1,0,.62.56.56,0,0,1-.58.31h-.79v2.5a.69.69,0,0,0,.12.48.39.39,0,0,0,.24.12.73.73,0,0,0,.48,0,.62.62,0,0,1,.67.16.63.63,0,0,1,.15.63.6.6,0,0,1-.46.45l-.45.08A1.79,1.79,0,0,1,29,13.26a2,2,0,0,1-.43-1.32V9.44h-.38a.53.53,0,0,1-.56-.31.65.65,0,0,1,.56-1h.38V6.52a.66.66,0,0,1,.34-.6A.69.69,0,0,1,29.18,5.87Z"/><path d="M35.21,8.53A2.88,2.88,0,0,1,36.29,11a2.74,2.74,0,0,1-1.08,2.47,2.53,2.53,0,0,1-2.83-.09A2.88,2.88,0,0,1,31.49,11a2.68,2.68,0,0,1,1.08-2.42,2.11,2.11,0,0,1,1.29-.41A2.43,2.43,0,0,1,35.21,8.53Zm-1.35,4.06c.79,0,1.18-.54,1.18-1.61s-.39-1.56-1.18-1.56a1.09,1.09,0,0,0-.6.19A1.52,1.52,0,0,0,32.74,11v.1C32.74,12.08,33.11,12.59,33.86,12.59Z"/><path d="M37.34,8.12a.69.69,0,0,1,.48.2.63.63,0,0,1,.2.48v2.73a1.09,1.09,0,0,0,.12.55.8.8,0,0,0,.4.41,1.51,1.51,0,0,0,.48.07.88.88,0,0,0,.82-.36l.07-.12a1.3,1.3,0,0,0,.12-.55V8.8a.62.62,0,0,1,.34-.58.54.54,0,0,1,.62,0,.62.62,0,0,1,.34.58v2.73a2.29,2.29,0,0,1-1.49,2.16,2.25,2.25,0,0,1-.82.15,2.14,2.14,0,0,1-1.8-.87,1.69,1.69,0,0,1-.21-.31,2.43,2.43,0,0,1-.29-1.13V8.8a.6.6,0,0,1,.36-.6A.5.5,0,0,1,37.34,8.12Z"/><path d="M44.16,8.12a2.39,2.39,0,0,1,1.34.39.66.66,0,0,1,.32.57.7.7,0,0,1-.39.56.58.58,0,0,1-.62-.08,1.42,1.42,0,0,0-.65-.14,1.19,1.19,0,0,0-.6.17A1.55,1.55,0,0,0,43,11v0a1.61,1.61,0,0,0,.51,1.42,1.12,1.12,0,0,0,.62.16,1.21,1.21,0,0,0,.65-.16.53.53,0,0,1,.62-.08.7.7,0,0,1,.39.56.58.58,0,0,1-.32.55,2.33,2.33,0,0,1-1.34.41,2.2,2.2,0,0,1-1.3-.39A2.71,2.71,0,0,1,41.76,11a2.79,2.79,0,0,1,.94-2.31A2.13,2.13,0,0,1,44.16,8.12Z"/><path d="M46.32,13.16V6.54a.66.66,0,0,1,.34-.6.92.92,0,0,1,.28-.05.62.62,0,0,1,.46.17.65.65,0,0,1,.19.48V8.36a2.34,2.34,0,0,1,1-.24,2.26,2.26,0,0,1,2.3,2.28v2.76a.56.56,0,0,1-.31.58.65.65,0,0,1-1-.58V10.4q-.09-.81-.57-1a1.44,1.44,0,0,0-.46-.07.79.79,0,0,0-.79.39,1.94,1.94,0,0,0-.22.64v2.76a.61.61,0,0,1-.45.63.62.62,0,0,1-.82-.63Z"/></svg>