<svg xmlns="http://www.w3.org/2000/svg" width="20" height="20" viewBox="0 0 20 20"><path d="M14.48,0h-9A5.53,5.53,0,0,0,0,5.52v9A5.53,5.53,0,0,0,5.52,20h9A5.53,5.53,0,0,0,20,14.48v-9A5.53,5.53,0,0,0,14.48,0Zm3.75,14.48a3.75,3.75,0,0,1-3.75,3.75h-9a3.75,3.75,0,0,1-3.75-3.75v-9A3.75,3.75,0,0,1,5.52,1.77h9a3.75,3.75,0,0,1,3.75,3.75v9Z"/><path d="M10,4.85A5.15,5.15,0,1,0,15.15,10,5.16,5.16,0,0,0,10,4.85Zm0,8.53A3.38,3.38,0,1,1,13.38,10,3.39,3.39,0,0,1,10,13.38Z"/><path d="M15.37,3.34a1.3,1.3,0,0,0-1.3,1.3,1.3,1.3,0,0,0,.38.92,1.3,1.3,0,0,0,1.84,0,1.3,1.3,0,0,0,.38-.92,1.3,1.3,0,0,0-1.3-1.3Z"/></svg>