<svg xmlns="http://www.w3.org/2000/svg" width="76.31" height="20.75" viewBox="0 0 76.31 20.75"><path d="M14.8,11.49s-1.5-.73-1.76-.83a.94.94,0,0,0-.34-.07.59.59,0,0,0-.49.29,11.34,11.34,0,0,1-.72.88s0,.05-.06.05l-.3-.12A7.68,7.68,0,0,1,8.21,9.1a.15.15,0,0,1,0-.06s.06-.07.08-.1a3.53,3.53,0,0,0,.25-.28l.12-.14a1.82,1.82,0,0,0,.24-.38l0-.07a.7.7,0,0,0,0-.64c0-.06-.65-1.55-.72-1.71-.15-.37-.36-.55-.65-.55H7.41a3.33,3.33,0,0,0-1.22.31,2.53,2.53,0,0,0-.94,2.16,4.68,4.68,0,0,0,1,2.56l0,.06a9.56,9.56,0,0,0,4.08,3.54,6.71,6.71,0,0,0,2.46.63h0a3.88,3.88,0,0,0,.4,0h.07a2.54,2.54,0,0,0,1.8-1.27,2,2,0,0,0,.12-1.33A1,1,0,0,0,14.8,11.49Z"/><path d="M10.18,0A9.8,9.8,0,0,0,.35,9.75,9.69,9.69,0,0,0,1.7,14.68L0,19.66a.27.27,0,0,0,.06.26A.27.27,0,0,0,.26,20H.34l5.19-1.65A9.84,9.84,0,0,0,20,9.75,9.8,9.8,0,0,0,10.18,0Zm0,17.47A7.73,7.73,0,0,1,5.9,16.19a.28.28,0,0,0-.15,0H5.67L3.08,17l.83-2.48a.26.26,0,0,0,0-.24A7.57,7.57,0,0,1,2.4,9.75a7.78,7.78,0,1,1,7.78,7.72Z"/><path d="M31,10.91a3.76,3.76,0,0,1,.53-.79,2.43,2.43,0,0,1,.69-.55,1.79,1.79,0,0,1,.84-.19,2.34,2.34,0,0,1,1.23.31,2.23,2.23,0,0,1,.83.89,2.85,2.85,0,0,1,.3,1.34A2.89,2.89,0,0,1,35.24,13a1.84,1.84,0,0,1-1.77,1.12,2.47,2.47,0,0,1-.68-.11c-.24-.08-.47-.16-.7-.26l-.62-.25a1.2,1.2,0,0,0-.46-.11.29.29,0,0,0-.25.14,1.27,1.27,0,0,0-.15.41,5.19,5.19,0,0,0-.08.66c0,.25,0,.54,0,.85s0,.63,0,.93,0,.56,0,.8,0,.43,0,.58H29.12c0-.41,0-.81-.05-1.19s0-.75,0-1.11,0-1,.06-1.37A4.14,4.14,0,0,1,29.31,13a1.83,1.83,0,0,1,.49-.78,1.68,1.68,0,0,1,.86-.39A5.38,5.38,0,0,1,31,10.91Zm2.91.5a.94.94,0,0,0-.33-.38.92.92,0,0,0-.5-.14.67.67,0,0,0-.37.11,1.06,1.06,0,0,0-.31.29,2.87,2.87,0,0,0-.23.39c-.06.14-.12.28-.17.42l.57.25.5.18a1.24,1.24,0,0,0,.39.07.49.49,0,0,0,.44-.21.86.86,0,0,0,.13-.48A1.06,1.06,0,0,0,34,11.41Z"/><path d="M38,5.87v5.4a1.7,1.7,0,0,0,.2.94,1,1,0,0,0,.79.27h.14v1.57H39a2.4,2.4,0,0,1-1.87-.66,3,3,0,0,1-.59-2V5.87Z"/><path d="M40.05,15.8l-1,1-1-1,1-1Zm-.66-3.32v1.57h-.47V12.48ZM42.29,10l.12,1.62a1.05,1.05,0,0,0,.13.5.63.63,0,0,0,.31.29,1.24,1.24,0,0,0,.54.1h.13v1.57h-.14a2.26,2.26,0,0,1-.71-.1,1.71,1.71,0,0,1-.56-.27,2.33,2.33,0,0,1-.42-.41,2.38,2.38,0,0,1-.84.58,2.65,2.65,0,0,1-1.05.2h-.56V12.48h.56a1.35,1.35,0,0,0,.92-.24,1.15,1.15,0,0,0,.26-.85c0-.22,0-.43,0-.64s0-.42,0-.62ZM42,15.8l-1,1-1-1,1-1Z"/><path d="M44.69,15.58l-.91.91-.91-.91.91-.92Zm-.55-3.1v1.57h-.86V12.48Zm1.57,4.59L44.8,18l-.91-.92.91-.91Zm-1.7-3V12.48H45a.68.68,0,0,0,.64-.29,1.36,1.36,0,0,0,.18-.73,4.58,4.58,0,0,0-.09-.86c-.06-.31-.13-.62-.19-.92l1.44-.37c.07.36.13.71.17,1.06a7,7,0,0,1,.07,1A4.15,4.15,0,0,1,47,12.74a1.84,1.84,0,0,1-.69,1,2.18,2.18,0,0,1-1.32.35Zm2.72,1.53-.91.91-.91-.91.91-.92Z"/><path d="M56.41,15.23a2.57,2.57,0,0,1-1.06,1.29A3.52,3.52,0,0,1,53.5,17a4,4,0,0,1-1.89-.41,2.66,2.66,0,0,1-1.13-1.17,4.17,4.17,0,0,1-.37-1.84,6.77,6.77,0,0,1,.15-1.38,10,10,0,0,1,.41-1.38l1.33.51c-.12.36-.23.73-.34,1.13a4.77,4.77,0,0,0-.15,1.14,2.05,2.05,0,0,0,.22,1,1.37,1.37,0,0,0,.65.63,2.56,2.56,0,0,0,1.12.22,1.91,1.91,0,0,0,1.06-.26,1.37,1.37,0,0,0,.56-.74,3.61,3.61,0,0,0,.17-1.17V5.87h1.46v7.26A5.63,5.63,0,0,1,56.41,15.23Z"/><path d="M59.63,5.87v5.4a1.61,1.61,0,0,0,.21.94.91.91,0,0,0,.78.27h.15v1.57h-.15a2.37,2.37,0,0,1-1.86-.66,2.91,2.91,0,0,1-.6-2V5.87Z"/><path d="M63.61,13.85a1.83,1.83,0,0,1-.64-.56,2.38,2.38,0,0,1-.76.56,2.65,2.65,0,0,1-1.14.2h-.54V12.48h.55a3.35,3.35,0,0,0,.72-.07.59.59,0,0,0,.39-.29,1.18,1.18,0,0,0,.13-.63c0-.07,0-.16,0-.3s0-.28,0-.44,0-.32,0-.46l1.37-.17.12,1.51a.91.91,0,0,0,.25.63.83.83,0,0,0,.64.22.85.85,0,0,0,.69-.23,1.31,1.31,0,0,0,.17-.76c0-.06,0-.16,0-.29s0-.28,0-.45,0-.32,0-.46l1.37-.17.12,1.51a1.14,1.14,0,0,0,.2.62.66.66,0,0,0,.56.23.53.53,0,0,0,.39-.14.72.72,0,0,0,.21-.36,1.88,1.88,0,0,0,.06-.49,3.79,3.79,0,0,0-.06-.67,5,5,0,0,0-.12-.63c-.05-.19-.08-.34-.11-.43l1.42-.39c.07.3.14.62.19,1a6.86,6.86,0,0,1,.07,1,4.46,4.46,0,0,1-.19,1.33,2,2,0,0,1-.63,1,1.77,1.77,0,0,1-1.22.38,1.63,1.63,0,0,1-.89-.22,1.89,1.89,0,0,1-.6-.56,2.34,2.34,0,0,1-.69.57,1.79,1.79,0,0,1-.88.21A2.27,2.27,0,0,1,63.61,13.85Z"/><path d="M68.81,15.8a6.3,6.3,0,0,0,1.47-.51,2.42,2.42,0,0,0,.92-.84,2.48,2.48,0,0,0,.32-1.3A4.75,4.75,0,0,0,71.36,12,12.38,12.38,0,0,0,71,10.76l1.46-.48a7.12,7.12,0,0,1,.35,1.34A8.17,8.17,0,0,1,72.94,13,4.57,4.57,0,0,1,72.5,15a3.78,3.78,0,0,1-1.23,1.43,5.36,5.36,0,0,1-1.91.77Z"/><path d="M75.49,14.05H74V5.87h1.46Z"/></svg>