<svg xmlns="http://www.w3.org/2000/svg" width="38.06" height="11.09" viewBox="0 0 38.06 11.09"><path d="M2.38,3.11a2.65,2.65,0,0,1,1.2.26c.54.31.77.65.69,1a.56.56,0,0,1-.45.48.56.56,0,0,1-.6-.16,1,1,0,0,0-1.08-.41.15.15,0,0,0-.08,0,.63.63,0,0,0-.55.41.47.47,0,0,0,.05.41,1.65,1.65,0,0,0,.94.17,2.78,2.78,0,0,1,.57,0,1.68,1.68,0,0,1,1.25.77,1.48,1.48,0,0,1,.29.94A1.49,1.49,0,0,1,4,8.34a2.08,2.08,0,0,1-.55.29,3.21,3.21,0,0,1-2.25,0,1.61,1.61,0,0,1-.94-.91.56.56,0,0,1,.31-.65.55.55,0,0,1,.7,0l.07,0a1.42,1.42,0,0,0,1.44.36.6.6,0,0,0,.55-.31.33.33,0,0,0,0-.36,1,1,0,0,0-.77-.24A2.34,2.34,0,0,1,.79,6.11,1.53,1.53,0,0,1,.24,4.79a1.5,1.5,0,0,1,.31-.94,2,2,0,0,1,1.78-.74Z"/><path d="M8.83,7.38a.64.64,0,0,1,.65-.12.62.62,0,0,1,.36.53.51.51,0,0,1-.24.57,1.84,1.84,0,0,1-.84.41,5.57,5.57,0,0,1-1.2.05,2.06,2.06,0,0,1-1.18-.41A2.85,2.85,0,0,1,5.26,6.08a.57.57,0,0,1,0-.26A2.73,2.73,0,0,1,6.38,3.49,2.27,2.27,0,0,1,7.7,3.08a2,2,0,0,1,1,.24,2.6,2.6,0,0,1,1.15,2.4V6a.69.69,0,0,1-.05.24.55.55,0,0,1-.57.39H6.6a1.07,1.07,0,0,0,1,.93h.22A2.26,2.26,0,0,0,8.83,7.38Zm-1.2-3H7.56a1.11,1.11,0,0,0-.48.14,1.15,1.15,0,0,0-.48.8h2V5.27a1,1,0,0,0-.48-.79.76.76,0,0,0-.41-.1Z"/><path d="M13.06,3.13a2.15,2.15,0,0,1,2,1.18.66.66,0,0,1,0,.69.63.63,0,0,1-.6.29.62.62,0,0,1-.53-.41.67.67,0,0,0-.43-.4,1.45,1.45,0,0,0-.43-.05.92.92,0,0,0-.84.33.42.42,0,0,1-.08.12,1.77,1.77,0,0,0-.14.56V8.2a.63.63,0,0,1-.29.55.59.59,0,0,1-.65,0,.62.62,0,0,1-.31-.55V5.44A2.21,2.21,0,0,1,12.22,3.3,2.07,2.07,0,0,1,13.06,3.13Z"/><path d="M16.2,3a.58.58,0,0,1,.6.33l.05.1a22.94,22.94,0,0,0,1,3.33l.19.39s.06,0,.1-.07a22.14,22.14,0,0,0,1.12-3.41.7.7,0,0,1,.44-.63l.09,0a.64.64,0,0,1,.7.26.54.54,0,0,1,.14.48,25.12,25.12,0,0,1-.72,2.57,9.92,9.92,0,0,1-.79,1.8l-.19.26a1,1,0,0,1-.89.43.67.67,0,0,1-.24,0A2,2,0,0,1,16.7,7.64a.59.59,0,0,1-.07-.16,22,22,0,0,1-1.08-3.63.65.65,0,0,1,.27-.69A.45.45,0,0,1,16.2,3Z"/><path d="M22.3,1a.71.71,0,0,1,.21.51v.09a.59.59,0,0,1-.31.55.59.59,0,0,1-.65,0,.59.59,0,0,1-.31-.55V1.48a.51.51,0,0,1,.05-.22.57.57,0,0,1,.53-.43A.55.55,0,0,1,22.3,1Zm0,2.35a.62.62,0,0,1,.19.46V8.2a.61.61,0,0,1-.31.55.59.59,0,0,1-.65,0,.61.61,0,0,1-.31-.55V3.78a.46.46,0,0,1,.07-.26.55.55,0,0,1,.55-.39A.59.59,0,0,1,22.32,3.32Z"/><path d="M25.75,3.13a2.42,2.42,0,0,1,1.35.39.67.67,0,0,1,.31.57.65.65,0,0,1-.39.55.56.56,0,0,1-.62-.07,1.42,1.42,0,0,0-.65-.14,1.09,1.09,0,0,0-.6.17A1.54,1.54,0,0,0,24.62,6V6q0,1.08.51,1.41a1,1,0,0,0,.62.17,1.13,1.13,0,0,0,.65-.17A.53.53,0,0,1,27,7.33a.67.67,0,0,1,.39.55.61.61,0,0,1-.31.56,2.35,2.35,0,0,1-1.35.4,2.16,2.16,0,0,1-1.29-.38A2.71,2.71,0,0,1,23.35,6a2.81,2.81,0,0,1,.94-2.3A2.15,2.15,0,0,1,25.75,3.13Z"/><path d="M31.75,7.38a.64.64,0,0,1,.65-.12.62.62,0,0,1,.36.53.51.51,0,0,1-.24.57,1.84,1.84,0,0,1-.84.41,5.57,5.57,0,0,1-1.2.05,2.06,2.06,0,0,1-1.18-.41,2.85,2.85,0,0,1-1.12-2.33.57.57,0,0,1,0-.26A2.73,2.73,0,0,1,29.3,3.49a2.27,2.27,0,0,1,1.32-.41,2,2,0,0,1,1,.24,2.6,2.6,0,0,1,1.15,2.4V6a.69.69,0,0,1,0,.24.55.55,0,0,1-.57.39H29.52a1.07,1.07,0,0,0,1,.93h.22A2.26,2.26,0,0,0,31.75,7.38Zm-1.2-3h-.07a1.11,1.11,0,0,0-.48.14,1.15,1.15,0,0,0-.48.8h2V5.27A1,1,0,0,0,31,4.48a.76.76,0,0,0-.41-.1Z"/><path d="M35.47,3.11a2.59,2.59,0,0,1,1.2.26c.55.31.78.65.7,1a.57.57,0,0,1-.46.48.56.56,0,0,1-.6-.16,1,1,0,0,0-1.08-.41l-.07,0a.63.63,0,0,0-.55.41.47.47,0,0,0,0,.41,1.64,1.64,0,0,0,.93.17,2.83,2.83,0,0,1,.58,0,1.68,1.68,0,0,1,1.25.77,1.54,1.54,0,0,1,.29.94,1.51,1.51,0,0,1-.63,1.27,2.24,2.24,0,0,1-.55.29,3.24,3.24,0,0,1-2.26,0,1.59,1.59,0,0,1-.93-.91.55.55,0,0,1,.31-.65.54.54,0,0,1,.69,0l.08,0a1.42,1.42,0,0,0,1.44.36.61.61,0,0,0,.55-.31.38.38,0,0,0,0-.36,1,1,0,0,0-.77-.24,2.34,2.34,0,0,1-1.75-.48,1.5,1.5,0,0,1-.55-1.32,1.5,1.5,0,0,1,.31-.94,2,2,0,0,1,1.77-.74Z"/></svg>