<svg xmlns="http://www.w3.org/2000/svg" width="61.88" height="20.75" viewBox="0 0 61.88 20.75"><path d="M32.52,14.05a12.2,12.2,0,0,1-1.89-.13,4.64,4.64,0,0,1-1.46-.44,2.25,2.25,0,0,1-1-.88,2.74,2.74,0,0,1-.33-1.42,4,4,0,0,1,.11-1,5.46,5.46,0,0,1,.29-.89l1.31.49c-.07.18-.13.39-.2.62a2.75,2.75,0,0,0-.09.67,1.05,1.05,0,0,0,.24.73,1.64,1.64,0,0,0,.68.42,5.31,5.31,0,0,0,1,.19c.39,0,.81.05,1.27.05h1.37c.34,0,.66,0,.94,0a3.48,3.48,0,0,0,.74-.14,1.15,1.15,0,0,0,.49-.31.82.82,0,0,0,.17-.53,4.84,4.84,0,0,0-.09-.86c-.06-.32-.12-.63-.19-.93l1.43-.36c.08.36.14.71.19,1.07a8.74,8.74,0,0,1,.06,1,2.93,2.93,0,0,1-.29,1.39,2,2,0,0,1-.8.82,3.67,3.67,0,0,1-1.2.37,9.57,9.57,0,0,1-1.46.1Zm.27-5.33-1,1-1-1,1-1Zm2,0-1,1-1-1,1-1Z"/><path d="M40.05,5.87v5.4a1.62,1.62,0,0,0,.2.94.91.91,0,0,0,.78.27h.15v1.57H41a2.37,2.37,0,0,1-1.86-.66,2.91,2.91,0,0,1-.59-2V5.87Z"/><path d="M44.29,14.07a3.5,3.5,0,0,1-.71-.33c-.22-.14-.45-.3-.68-.48-.15.15-.3.28-.44.4a1.75,1.75,0,0,1-.52.29,2.2,2.2,0,0,1-.74.1h-.26V12.48h.23a.78.78,0,0,0,.55-.23,3.15,3.15,0,0,0,.45-.57l.45-.75a4.87,4.87,0,0,1,.52-.76,2.48,2.48,0,0,1,.67-.58,1.9,1.9,0,0,1,.92-.22A2.31,2.31,0,0,1,46,9.71a2.39,2.39,0,0,1,.82.91,2.72,2.72,0,0,1,.29,1.23,3.07,3.07,0,0,1-.23,1.21,1.92,1.92,0,0,1-.68.83,2,2,0,0,1-1.12.3A2.43,2.43,0,0,1,44.29,14.07Zm0-3a2.14,2.14,0,0,0-.36.42,3.67,3.67,0,0,0-.26.47,3.84,3.84,0,0,0,.34.28,1.74,1.74,0,0,0,.3.2,1.71,1.71,0,0,0,.4.18,1.39,1.39,0,0,0,.32.05.54.54,0,0,0,.49-.22,1,1,0,0,0,.15-.54,1.1,1.1,0,0,0-.25-.71.82.82,0,0,0-.67-.3A.73.73,0,0,0,44.32,11Z"/><path d="M51,11.21a3.6,3.6,0,0,0-.14-.4L49.72,8.28,51,7.66,52.46,11c.12.3.24.57.34.79a1.73,1.73,0,0,0,.33.53.62.62,0,0,0,.46.19h.25v1.57h-.25a2.18,2.18,0,0,1-.76-.11,1.77,1.77,0,0,1-.55-.32,3.39,3.39,0,0,1-.44-.48,3,3,0,0,1-.66.5,3.48,3.48,0,0,1-.84.31,5.62,5.62,0,0,1-1.06.1,7,7,0,0,1-.85,0,4.91,4.91,0,0,1-.72-.12V12.32c.25,0,.5.1.75.13a6.4,6.4,0,0,0,.73.05,4.49,4.49,0,0,0,.92-.09,1.82,1.82,0,0,0,.69-.28.62.62,0,0,0,.27-.53A1.8,1.8,0,0,0,51,11.21Z"/><path d="M54.6,12.48a6.36,6.36,0,0,0,1.1-.09,6.93,6.93,0,0,0,1-.26c.34-.12.7-.26,1.07-.43s.78-.36,1.23-.57l-.83-.31-.68-.27L57,10.37a1.38,1.38,0,0,0-.31-.07,1,1,0,0,0-.59.2,2.49,2.49,0,0,0-.43.43l-.29.35-1.23-.6.23-.37a4,4,0,0,1,1-1.1,2.13,2.13,0,0,1,1.33-.44,2.26,2.26,0,0,1,.75.15c.29.1.6.23.93.38l1,.45a8.93,8.93,0,0,0,1.05.39,3.65,3.65,0,0,0,1,.16v1.45a3.42,3.42,0,0,0-.78.19,5.7,5.7,0,0,0-.79.34l-1,.51c-.5.26-1,.49-1.41.68a7.13,7.13,0,0,1-2.91.58h-1V12.48ZM58.27,7l-1,1-1-1,1-1Z"/><path d="M7.67,9.67V2.35a.19.19,0,0,0,0-.08A.34.34,0,0,0,7.51,2L5.62.16A.27.27,0,0,0,5.4,0H.67A.67.67,0,0,0,0,.67v9a.67.67,0,0,0,.67.66H7A.67.67,0,0,0,7.67,9.67ZM6.53,2H5.67V1.13ZM.67.67H5V2a.67.67,0,0,0,.67.67H7v7H.67Z"/><path d="M19.33,11.93a.3.3,0,0,0-.15-.22L17.29,9.82a.32.32,0,0,0-.22-.15H12.33a.67.67,0,0,0-.66.66v9a.67.67,0,0,0,.66.67h6.34a.67.67,0,0,0,.66-.67v-7.4Zm-1.13-.26h-.87V10.8Zm.47,7.66H12.33v-9h4.34v1.34a.67.67,0,0,0,.66.66h1.34v7Z"/><path d="M10.33,17h-8V11.67A.32.32,0,0,0,2,11.33a.32.32,0,0,0-.33.34v5.66a.32.32,0,0,0,.33.34h8.33a.33.33,0,0,0,.34-.34A.32.32,0,0,0,10.33,17Z"/><path d="M9,4h6.33V8.33a.33.33,0,0,0,.34.34A.32.32,0,0,0,16,8.33V3.67a.32.32,0,0,0-.33-.34H9a.32.32,0,0,0-.33.34A.31.31,0,0,0,9,4Z"/></svg>