<?xml version="1.0" encoding="utf-8"?>
<!-- Generator: Adobe Illustrator 26.3.1, SVG Export Plug-In . SVG Version: 6.00 Build 0)  -->
<svg version="1.1" id="Layer_1" xmlns="http://www.w3.org/2000/svg" xmlns:xlink="http://www.w3.org/1999/xlink" x="0px" y="0px"
	 viewBox="0 0 20 20" style="enable-background:new 0 0 20 20;" xml:space="preserve">
<style type="text/css">
	.st0{font-family:'Ubuntu-Title';}
	.st1{font-size:15px;}
</style>
<text transform="matrix(1 0 0 1 3.1149 13.5999)" class="st0 st1">EN</text>
<path d="M19.9,5.9c0-1.1-0.2-1.8-0.5-2.4c-0.2-0.7-0.6-1.3-1.1-1.8c-0.5-0.5-1.1-0.9-1.8-1.2c-0.6-0.2-1.4-0.4-2.4-0.5
	C13,0,12.7,0,10,0S7,0,5.9,0.1c-1.1,0-1.8,0.2-2.4,0.5C2.8,0.8,2.2,1.2,1.7,1.7C1.2,2.2,0.8,2.8,0.5,3.5C0.3,4.1,0.1,4.8,0.1,5.9
	C0,7,0,7.3,0,10c0,2.7,0,3.1,0.1,4.1c0,1.1,0.2,1.8,0.5,2.4c0.2,0.7,0.6,1.2,1.1,1.8c0.5,0.5,1.1,0.9,1.8,1.2
	c0.6,0.2,1.4,0.4,2.4,0.5C6.9,20,7.3,20,10,20s3.1,0,4.1-0.1c1.1,0,1.8-0.2,2.4-0.5c0.7-0.2,1.3-0.7,1.8-1.2
	c0.6-0.6,0.9-1.1,1.2-1.8c0.2-0.6,0.4-1.4,0.5-2.4c0-1.1,0.1-1.4,0.1-4.1C20,7.3,20,7,19.9,5.9z M18.1,14c0,1-0.2,1.5-0.3,1.9
	c-0.2,0.4-0.4,0.8-0.8,1.2c-0.3,0.3-0.7,0.6-1.1,0.7c-0.4,0.1-0.9,0.3-1.9,0.3c-1,0-1.4,0.1-4,0.1s-3,0-4-0.1c-1,0-1.5-0.2-1.9-0.3
	c-0.4-0.2-0.8-0.4-1.1-0.7c-0.3-0.3-0.6-0.7-0.8-1.2C2.1,15.6,1.9,15,1.9,14c0-1-0.1-1.4-0.1-4c0-2.7,0-3,0.1-4c0-1,0.2-1.5,0.4-1.9
	C2.4,3.6,2.6,3.3,3,3c0.3-0.3,0.7-0.6,1.1-0.7C4.5,2.1,5,1.9,6,1.9c0.9,0,1.3,0,3.1-0.1v0H10c2.7,0,3,0,4,0c1,0,1.5,0.2,1.9,0.3
	C16.4,2.4,16.7,2.6,17,3c0.4,0.4,0.6,0.7,0.8,1.2C17.9,4.5,18.1,5,18.1,6c0,1.1,0.1,1.4,0.1,4C18.2,12.7,18.2,13,18.1,14z"/>
</svg>
