<?xml version="1.0" encoding="utf-8"?>
<!-- Generator: Adobe Illustrator 26.3.1, SVG Export Plug-In . SVG Version: 6.00 Build 0)  -->
<svg version="1.1" id="Layer_1" xmlns="http://www.w3.org/2000/svg" xmlns:xlink="http://www.w3.org/1999/xlink" x="0px" y="0px"
	 viewBox="0 0 67.2 20" style="enable-background:new 0 0 67.2 20;" xml:space="preserve">
<style type="text/css">
	.st0{fill-rule:evenodd;clip-rule:evenodd;}
</style>
<g>
	<path class="st0" d="M63.7,4c-1.6-1.6-3.7-2.5-6-2.5c-4.7,0-8.5,3.8-8.5,8.4c0,1.5,0.4,2.9,1.1,4.2l-1,3.8
		c-0.1,0.2,0.2,0.5,0.4,0.4l3.9-1c1.2,0.7,2.6,1,4,1c2.3,0,4.4-0.9,6-2.5c1.5-1.5,2.5-3.6,2.5-6C66.2,7.7,65.3,5.6,63.7,4z
		 M57.7,17.1c-1.2,0-2.4-0.3-3.4-0.9c-0.3-0.2-0.6-0.2-0.9-0.1L51,16.8l0.6-2.2c0.1-0.3,0-0.7-0.1-1c-0.6-1.1-1-2.3-1-3.6
		c0-3.9,3.2-7.1,7.2-7.1c1.9,0,3.7,0.7,5.1,2.1c1.3,1.3,2.1,3.1,2.1,5.1C64.9,13.9,61.7,17.1,57.7,17.1z"/>
	<path class="st0" d="M62,13.1c-0.2,0.5-1.1,1-1.5,1c0,0-0.1,0-0.1,0c-0.4,0-0.8,0.1-2.5-0.6c-2.1-0.8-3.4-2.8-3.7-3.2
		c0,0,0-0.1,0-0.1l0,0c-0.1-0.2-0.9-1.2-0.9-2.2c0-1,0.5-1.5,0.7-1.8c0,0,0,0,0,0C54.2,6,54.5,6,54.6,6H55c0.2,0,0.3,0,0.5,0.4
		C55.6,6.6,55.8,7,56,7.4c0.1,0.3,0.2,0.5,0.2,0.6c0.1,0.1,0.1,0.2,0,0.4c0,0,0,0,0,0c-0.1,0.1-0.1,0.2-0.2,0.3
		c0,0.1-0.1,0.1-0.1,0.2c-0.1,0.1-0.1,0.2-0.2,0.2c-0.1,0.1-0.2,0.2-0.1,0.4c0.1,0.2,0.6,0.9,1.2,1.5c0.7,0.6,1.3,0.9,1.6,1
		c0.1,0,0.1,0.1,0.1,0.1c0.2,0.1,0.3,0.1,0.5-0.1c0.1-0.1,0.5-0.6,0.7-0.8c0.1-0.2,0.3-0.2,0.5-0.1c0.2,0.1,1.3,0.6,1.5,0.7
		c0,0,0.1,0,0.1,0.1c0.2,0.1,0.3,0.1,0.3,0.2C62.2,12.2,62.2,12.6,62,13.1z"/>
</g>
<g>
	<path d="M4.9,15c-0.2,0.1-0.3,0.2-0.5,0.3c-0.2,0.1-0.6,0.1-1.2,0.1H3.2l-0.5-0.1c0,0-0.1,0-0.2,0c-0.3-0.1-0.6-0.3-0.8-0.6
		c-0.1-0.2-0.1-0.4,0-0.6c0.1-0.2,0.3-0.3,0.5-0.3c0.2,0,0.4,0.1,0.5,0.3l0-0.1L3,14.1c0.1,0,0.2,0.1,0.3,0.1c0.5,0,0.8,0,0.9-0.1
		c0.2-0.1,0.2-0.5,0.3-1c-0.3,0.1-0.6,0.2-1,0.2c-0.4,0-0.8-0.1-1.1-0.4l-0.2-0.1c-0.6-0.5-0.9-1.2-0.9-2.2c0-0.2,0-0.4,0-0.6
		c0.1-0.8,0.5-1.4,1-1.8C2.7,8,3.1,7.9,3.6,7.9c0.5,0,0.9,0.1,1.2,0.4c0.5,0.5,0.8,1.2,0.8,2.1v2.3C5.6,13.8,5.4,14.5,4.9,15z
		 M3.5,9.1C3.5,9.1,3.5,9.1,3.5,9.1C3.3,9.1,3.2,9.1,3,9.2c-0.3,0.2-0.5,0.7-0.5,1.3v0.1c0,0.9,0.3,1.3,1,1.4C3.7,12,3.8,12,4,11.9
		l0.1,0c0.2-0.1,0.3-0.4,0.3-0.8v-0.7c0-0.6-0.2-1-0.5-1.2C3.9,9.1,3.7,9.1,3.5,9.1L3.5,9.1z"/>
	<path d="M9.7,11.9c0.2-0.2,0.4-0.2,0.6-0.1c0.2,0.1,0.3,0.3,0.3,0.5c0,0.2,0,0.4-0.2,0.5c-0.2,0.2-0.5,0.3-0.8,0.4
		c-0.2,0-0.6,0.1-1.1,0c-0.4,0-0.8-0.1-1.1-0.4c-0.7-0.5-1-1.2-1.1-2.2c0-0.1,0-0.2,0-0.2c0-1,0.4-1.8,1.1-2.2
		c0.4-0.3,0.8-0.4,1.3-0.4C9,7.8,9.3,7.9,9.6,8c0.7,0.5,1.1,1.2,1.1,2.3v0.2c0,0.1,0,0.2,0,0.2c-0.1,0.2-0.3,0.4-0.5,0.4H7.6
		C7.7,11.6,8,11.9,8.5,12h0.2C9.2,12,9.6,12,9.7,11.9z M8.6,9L8.6,9C8.4,9,8.2,9.1,8,9.2C7.8,9.3,7.7,9.6,7.6,9.9h1.9v0
		C9.4,9.5,9.2,9.2,9,9.1C8.9,9.1,8.8,9,8.6,9L8.6,9z"/>
	<path d="M12.5,5.7c0.2,0,0.3,0.1,0.5,0.2c0.1,0.1,0.2,0.3,0.2,0.4v1.6h0.8c0.2,0,0.4,0.1,0.5,0.3c0.1,0.2,0.1,0.4,0,0.6
		s-0.3,0.3-0.5,0.3h-0.8v2.4c0,0.2,0,0.4,0.1,0.5c0,0.1,0.1,0.1,0.2,0.1c0.1,0,0.3,0,0.5,0c0.2-0.1,0.5,0,0.6,0.2
		c0.2,0.2,0.2,0.3,0.1,0.6c-0.1,0.2-0.2,0.4-0.4,0.4l-0.4,0.1c-0.7,0-1.2-0.1-1.5-0.5c-0.3-0.3-0.4-0.7-0.4-1.2V9.1h-0.4
		c-0.2,0-0.4-0.1-0.5-0.3c-0.1-0.2-0.1-0.4,0-0.6c0.1-0.2,0.3-0.3,0.5-0.3h0.4V6.3c0-0.2,0.1-0.4,0.3-0.6
		C12.3,5.7,12.4,5.7,12.5,5.7z"/>
	<path d="M17.6,5.8c0.1,0.1,0.2,0.3,0.2,0.5v0.1c0,0.2-0.1,0.4-0.3,0.5c-0.2,0.1-0.4,0.1-0.6,0s-0.3-0.3-0.3-0.5V6.3
		c0-0.1,0-0.1,0-0.2c0.1-0.2,0.2-0.4,0.5-0.4C17.3,5.6,17.5,5.7,17.6,5.8z M17.6,8c0.1,0.1,0.2,0.3,0.2,0.4v4.2
		c0,0.2-0.1,0.4-0.3,0.5c-0.2,0.1-0.4,0.1-0.6,0s-0.3-0.3-0.3-0.5V8.5c0-0.1,0-0.2,0.1-0.2c0.1-0.2,0.3-0.4,0.5-0.4
		C17.4,7.9,17.5,7.9,17.6,8z"/>
	<path d="M18.5,10.1c0-0.5,0.2-1,0.5-1.4C19.4,8.2,19.9,8,20.7,8c1.1,0.1,1.8,0.6,2,1.5c0,0.2,0.1,0.4,0.1,0.6v2.6
		c0,0.2-0.1,0.4-0.3,0.5c-0.1,0-0.2,0.1-0.2,0.1c-0.3,0-0.4-0.1-0.5-0.4c0-0.1,0-0.2,0-0.2v-2.6c0-0.6-0.3-0.9-1-0.9
		c-0.5,0-0.8,0.2-0.9,0.7c0,0.1,0,0.1,0,0.2v2.6c0,0.2-0.1,0.4-0.4,0.5c-0.1,0-0.1,0.1-0.2,0.1c-0.3,0-0.4-0.1-0.5-0.4
		c0-0.1,0-0.2,0-0.2V10.1z"/>
	<path d="M26.2,5.7c0.2,0,0.3,0.1,0.5,0.2c0.1,0.1,0.2,0.3,0.2,0.4v1.6h0.8c0.2,0,0.4,0.1,0.5,0.3c0.1,0.2,0.1,0.4,0,0.6
		s-0.3,0.3-0.5,0.3h-0.8v2.4c0,0.2,0,0.4,0.1,0.5c0,0.1,0.1,0.1,0.2,0.1c0.1,0,0.3,0,0.5,0c0.2-0.1,0.5,0,0.6,0.2
		c0.2,0.2,0.2,0.3,0.1,0.6c-0.1,0.2-0.2,0.4-0.4,0.4l-0.4,0.1c-0.7,0-1.2-0.1-1.5-0.5c-0.3-0.3-0.4-0.7-0.4-1.2V9.1h-0.4
		c-0.2,0-0.4-0.1-0.5-0.3c-0.1-0.2-0.1-0.4,0-0.6C24.8,8,25,7.9,25.3,7.9h0.4V6.3c0-0.2,0.1-0.4,0.3-0.6C26,5.7,26.1,5.7,26.2,5.7z"
		/>
	<path d="M32.1,8.2c0.7,0.5,1,1.3,1,2.3c0,1.1-0.3,1.9-1,2.3c-0.4,0.2-0.8,0.4-1.3,0.4c-0.5,0-1-0.2-1.4-0.5
		c-0.6-0.5-0.9-1.2-0.8-2.2c0-1.1,0.3-1.8,1-2.3C30,8,30.4,7.9,30.9,7.9C31.4,7.9,31.8,8,32.1,8.2z M30.9,12.1
		c0.7,0,1.1-0.5,1.1-1.5c0-1-0.4-1.5-1.1-1.5c-0.2,0-0.4,0.1-0.6,0.2c-0.3,0.2-0.5,0.6-0.5,1.3v0.1C29.8,11.6,30.2,12.1,30.9,12.1z"
		/>
	<path d="M34.4,7.9c0.2,0,0.3,0.1,0.5,0.2C35,8.2,35,8.3,35,8.5v2.6c0,0.2,0,0.4,0.1,0.5c0.1,0.2,0.2,0.3,0.4,0.4
		c0.1,0,0.3,0.1,0.5,0.1c0.4,0,0.6-0.1,0.8-0.3l0.1-0.1c0.1-0.2,0.1-0.3,0.1-0.5V8.5c0-0.2,0.1-0.4,0.3-0.5s0.4-0.1,0.6,0
		c0.2,0.1,0.3,0.3,0.3,0.5v2.6c-0.1,1-0.6,1.7-1.4,2c-0.2,0.1-0.5,0.1-0.8,0.1c-0.7,0-1.3-0.3-1.7-0.8c-0.1-0.1-0.1-0.2-0.2-0.3
		c-0.2-0.3-0.3-0.7-0.3-1.1V8.5c0-0.3,0.1-0.5,0.3-0.6C34.2,7.9,34.3,7.9,34.4,7.9z"/>
	<path d="M41.1,7.9c0.5,0,0.9,0.1,1.3,0.4c0.2,0.1,0.3,0.3,0.3,0.5c0,0.2-0.2,0.4-0.4,0.5c-0.2,0.1-0.4,0.1-0.6-0.1
		c-0.2-0.1-0.4-0.1-0.6-0.1c-0.2,0-0.4,0.1-0.6,0.2C40.2,9.5,40,9.9,40,10.5v0c0,0.7,0.2,1.1,0.5,1.3c0.2,0.1,0.4,0.2,0.6,0.2
		c0.2,0,0.4-0.1,0.6-0.2c0.2-0.2,0.4-0.2,0.6-0.1c0.2,0.1,0.3,0.3,0.4,0.5c0,0.2-0.1,0.4-0.3,0.5c-0.4,0.3-0.8,0.4-1.3,0.4
		c-0.5,0-0.9-0.1-1.2-0.4c-0.7-0.4-1-1.2-1-2.4c0-1,0.3-1.7,0.9-2.2C40.1,8,40.5,7.9,41.1,7.9z"/>
	<path d="M43.4,12.6V6.4c0-0.2,0.1-0.4,0.3-0.6c0.1,0,0.2,0,0.3,0c0.2,0,0.3,0.1,0.4,0.2c0.1,0.1,0.2,0.3,0.2,0.5v1.7
		c0.3-0.2,0.6-0.2,1-0.2c0.7,0,1.3,0.3,1.7,0.8c0.3,0.4,0.5,0.9,0.5,1.4v2.6c0,0.2-0.1,0.4-0.3,0.5c-0.2,0.1-0.4,0.1-0.6,0
		c-0.2-0.1-0.3-0.3-0.3-0.5V10c-0.1-0.5-0.2-0.8-0.5-0.9c-0.1,0-0.2-0.1-0.4-0.1c-0.4,0-0.6,0.1-0.8,0.4c-0.1,0.2-0.2,0.4-0.2,0.6
		v2.6c0,0.3-0.1,0.5-0.4,0.6c-0.2,0.1-0.5,0-0.6-0.2C43.4,12.9,43.4,12.8,43.4,12.6z"/>
</g>
</svg>
