<?xml version="1.0" encoding="utf-8"?>
<!-- Generator: Adobe Illustrator 26.3.1, SVG Export Plug-In . SVG Version: 6.00 Build 0)  -->
<svg version="1.1" id="Layer_1" xmlns="http://www.w3.org/2000/svg" xmlns:xlink="http://www.w3.org/1999/xlink" x="0px" y="0px"
	 viewBox="0 0 67.2 20" style="enable-background:new 0 0 67.2 20;" xml:space="preserve">
<style type="text/css">
	.st0{fill-rule:evenodd;clip-rule:evenodd;}
</style>
<g>
	<path class="st0" d="M15.4,4c-1.6-1.6-3.7-2.5-6-2.5C4.8,1.6,1,5.4,1,10c0,1.5,0.4,2.9,1.1,4.2l-1,3.8c-0.1,0.2,0.2,0.5,0.4,0.4
		l3.9-1c1.2,0.7,2.6,1,4,1c2.3,0,4.4-0.9,6-2.5c1.5-1.5,2.5-3.6,2.5-6C17.9,7.7,17,5.6,15.4,4z M9.5,17.1c-1.2,0-2.4-0.3-3.4-0.9
		c-0.3-0.2-0.6-0.2-0.9-0.1l-2.3,0.6l0.6-2.2c0.1-0.3,0-0.7-0.1-1c-0.6-1.1-1-2.3-1-3.6c0-3.9,3.2-7.1,7.2-7.1
		c1.9,0,3.7,0.7,5.1,2.1c1.3,1.3,2.1,3.1,2.1,5.1C16.6,13.9,13.4,17.1,9.5,17.1z"/>
	<path class="st0" d="M13.7,13.1c-0.2,0.5-1.1,1-1.5,1c0,0-0.1,0-0.1,0c-0.4,0-0.8,0.1-2.5-0.6c-2.1-0.8-3.4-2.8-3.7-3.2
		c0,0,0-0.1,0-0.1l0,0C5.8,10.1,5,9.1,5,8.1c0-1,0.5-1.5,0.7-1.8c0,0,0,0,0,0C6,6,6.2,6,6.4,6h0.4c0.2,0,0.3,0,0.5,0.4
		C7.4,6.6,7.6,7,7.7,7.4C7.8,7.7,7.9,7.9,7.9,8C8,8.1,8,8.2,8,8.3c0,0,0,0,0,0C7.9,8.5,7.8,8.6,7.7,8.7c0,0.1-0.1,0.1-0.1,0.2
		C7.5,8.9,7.5,9,7.4,9.1C7.3,9.2,7.2,9.3,7.3,9.5c0.1,0.2,0.6,0.9,1.2,1.5c0.7,0.6,1.3,0.9,1.6,1c0.1,0,0.1,0.1,0.1,0.1
		c0.2,0.1,0.3,0.1,0.5-0.1c0.1-0.1,0.5-0.6,0.7-0.8c0.1-0.2,0.3-0.2,0.5-0.1c0.2,0.1,1.3,0.6,1.5,0.7c0,0,0.1,0,0.1,0.1
		c0.2,0.1,0.3,0.1,0.3,0.2C13.9,12.2,13.9,12.6,13.7,13.1z"/>
</g>
<g>
	<path d="M21.5,9.4c0.1-0.3,0.3-0.6,0.5-0.8s0.4-0.4,0.6-0.5s0.5-0.2,0.8-0.2c0.4,0,0.8,0.1,1.1,0.3s0.6,0.5,0.8,0.9
		s0.3,0.8,0.3,1.3c0,0.4-0.1,0.7-0.2,0.9s-0.3,0.5-0.6,0.7s-0.6,0.2-1,0.2c-0.2,0-0.5,0-0.7-0.1s-0.5-0.2-0.7-0.3s-0.4-0.2-0.6-0.3
		s-0.3-0.1-0.5-0.1c-0.2,0-0.3,0-0.4,0.1s-0.2,0.2-0.2,0.4s-0.1,0.4-0.1,0.7s0,0.7,0,1.1c0,0.3,0,0.5,0,0.7s0,0.4,0,0.6s0,0.4,0,0.7
		h-1c0-0.4,0-0.7,0-1s0-0.6,0-1c0-0.4,0-0.9,0-1.2c0-0.4,0.1-0.8,0.2-1.1s0.2-0.6,0.4-0.8s0.5-0.3,0.8-0.4
		C21.3,10,21.4,9.7,21.5,9.4z M24.5,9.7c-0.1-0.2-0.2-0.4-0.4-0.5S23.7,9,23.5,9c-0.2,0-0.3,0-0.5,0.1s-0.3,0.2-0.4,0.4
		s-0.2,0.3-0.3,0.5s-0.2,0.4-0.2,0.6c0.3,0.1,0.5,0.2,0.8,0.3s0.4,0.2,0.6,0.2s0.3,0.1,0.4,0.1c0.3,0,0.5-0.1,0.6-0.2
		s0.2-0.3,0.2-0.6C24.6,10.1,24.6,9.9,24.5,9.7z"/>
	<path d="M28.1,4.1v5.6c0,0.6,0.1,0.9,0.3,1.1s0.5,0.3,0.9,0.3h0.1v1.1h-0.1c-0.7,0-1.3-0.2-1.7-0.6s-0.5-1-0.5-1.9V4.1H28.1z"/>
	<path d="M30.2,13.9l-0.8,0.8l-0.8-0.8l0.8-0.8L30.2,13.9z M29.7,11.1v1.1h-0.5v-1.1H29.7z M32.4,8.6l0.1,1.4c0,0.2,0.1,0.5,0.2,0.6
		s0.2,0.3,0.4,0.4s0.4,0.1,0.6,0.1h0.1v1.1h-0.1c-0.3,0-0.5,0-0.8-0.1s-0.4-0.2-0.5-0.3s-0.3-0.3-0.4-0.5c-0.2,0.3-0.5,0.5-0.8,0.7
		s-0.7,0.2-1.1,0.2h-0.6v-1.1h0.6c0.5,0,0.9-0.1,1.1-0.3s0.3-0.6,0.3-1c0-0.2,0-0.4,0-0.5s0-0.3,0-0.5L32.4,8.6z M32.2,13.9
		l-0.8,0.8l-0.8-0.8l0.8-0.8L32.2,13.9z"/>
	<path d="M34.5,13.7l-0.8,0.8l-0.8-0.8l0.8-0.8L34.5,13.7z M34,11.1v1.1h-0.5v-1.1H34z M33.9,12.1v-1.1h0.9c0.4,0,0.7-0.1,0.8-0.3
		s0.2-0.5,0.2-0.9c0-0.3,0-0.5-0.1-0.8s-0.1-0.6-0.2-0.9l1-0.3c0.1,0.3,0.1,0.6,0.2,0.9s0.1,0.6,0.1,0.9c0,0.5-0.1,0.9-0.2,1.3
		s-0.3,0.7-0.6,0.9s-0.7,0.3-1.2,0.3H33.9z M35.5,15.1l-0.8,0.8l-0.8-0.8l0.8-0.8L35.5,15.1z M36.5,13.7l-0.8,0.8l-0.8-0.8l0.8-0.8
		L36.5,13.7z"/>
	<path d="M47.1,13.5c-0.2,0.5-0.6,0.9-1,1.2S45,15,44.3,15c-0.7,0-1.3-0.1-1.8-0.4s-0.8-0.6-1-1.1s-0.3-1-0.3-1.6
		c0-0.4,0-0.8,0.1-1.3s0.2-0.9,0.4-1.3l0.9,0.4c-0.1,0.4-0.2,0.7-0.3,1.1s-0.1,0.7-0.1,1.1c0,0.4,0.1,0.8,0.2,1.1s0.4,0.5,0.7,0.7
		s0.7,0.2,1.2,0.2c0.5,0,0.9-0.1,1.2-0.3s0.5-0.4,0.7-0.8s0.2-0.8,0.2-1.4V4.1h1v7.4C47.4,12.3,47.3,13,47.1,13.5z"/>
	<path d="M50.2,4.1v5.6c0,0.6,0.1,0.9,0.3,1.1s0.5,0.3,0.9,0.3h0.1v1.1h-0.1c-0.7,0-1.3-0.2-1.7-0.6s-0.5-1-0.5-1.9V4.1H50.2z"/>
	<path d="M54.4,11.9c-0.2-0.2-0.4-0.4-0.6-0.7c-0.2,0.3-0.4,0.5-0.7,0.7s-0.7,0.2-1.2,0.2h-0.5v-1.1h0.6c0.3,0,0.6,0,0.8-0.1
		s0.4-0.2,0.5-0.4s0.2-0.4,0.2-0.8c0-0.1,0-0.1,0-0.2s0-0.2,0-0.3s0-0.3,0-0.4l1-0.1l0.1,1.2c0,0.3,0.1,0.6,0.3,0.8s0.4,0.3,0.8,0.3
		c0.4,0,0.7-0.1,0.8-0.3s0.2-0.5,0.2-1c0-0.1,0-0.1,0-0.2s0-0.2,0-0.3s0-0.3,0-0.4l1-0.1l0.1,1.2c0,0.3,0.1,0.6,0.3,0.8
		s0.4,0.3,0.7,0.3c0.2,0,0.4-0.1,0.5-0.2s0.2-0.3,0.3-0.4s0.1-0.4,0.1-0.6c0-0.2,0-0.4,0-0.6s-0.1-0.4-0.1-0.6s-0.1-0.3-0.1-0.4
		l1-0.3c0.1,0.3,0.1,0.5,0.2,0.8s0.1,0.6,0.1,0.9c0,0.4-0.1,0.8-0.2,1.2s-0.3,0.7-0.6,0.9s-0.6,0.3-1.1,0.3c-0.4,0-0.7-0.1-0.9-0.2
		s-0.4-0.4-0.6-0.7c-0.2,0.3-0.5,0.5-0.7,0.7s-0.6,0.2-0.9,0.2C55,12.1,54.6,12.1,54.4,11.9z"/>
	<path d="M59.9,14.4c0.6-0.1,1.1-0.3,1.5-0.6s0.7-0.6,0.8-1c0.2-0.4,0.3-0.8,0.3-1.3c0-0.3,0-0.7-0.1-1s-0.2-0.7-0.3-1.1l1-0.3
		c0.1,0.4,0.2,0.8,0.3,1.2s0.1,0.8,0.1,1.1c0,0.7-0.1,1.3-0.3,1.8s-0.6,1-1.1,1.4s-1.1,0.7-1.8,0.8L59.9,14.4z"/>
	<path d="M66,12.1h-1V4.1h1V12.1z"/>
</g>
</svg>
