<?xml version="1.0" encoding="utf-8"?>
<!-- Generator: Adobe Illustrator 26.3.1, SVG Export Plug-In . SVG Version: 6.00 Build 0)  -->
<svg version="1.1" id="Layer_1" xmlns="http://www.w3.org/2000/svg" xmlns:xlink="http://www.w3.org/1999/xlink" x="0px" y="0px"
	 viewBox="0 0 37.4 20" style="enable-background:new 0 0 37.4 20;" xml:space="preserve">
<g>
	<path d="M3.5,7.8c0.4,0,0.8,0.1,1.1,0.2c0.5,0.3,0.7,0.6,0.7,1c0,0.2-0.2,0.4-0.4,0.5c-0.2,0.1-0.4,0-0.6-0.2C4.1,9,3.8,8.9,3.3,9
		c0,0-0.1,0-0.1,0C3,9,2.8,9.2,2.7,9.4c0,0.1,0,0.2,0,0.4c0.2,0.1,0.5,0.2,0.9,0.2c0.2,0,0.4,0,0.5,0c0.5,0,0.9,0.3,1.2,0.7
		c0.2,0.3,0.3,0.6,0.3,0.9c0,0.5-0.2,0.9-0.6,1.2c-0.2,0.1-0.3,0.2-0.5,0.3c-0.8,0.3-1.5,0.3-2.1,0c-0.5-0.2-0.8-0.5-0.9-0.9
		c-0.1-0.3,0-0.5,0.3-0.6c0.2-0.2,0.5-0.1,0.7,0c0,0,0.1,0,0.1,0C2.8,12,3.2,12.1,3.9,12c0.3,0,0.4-0.1,0.5-0.3
		c0.1-0.1,0.1-0.2,0-0.3c-0.1-0.2-0.4-0.2-0.7-0.2c-0.8,0-1.3-0.1-1.7-0.5c-0.4-0.3-0.6-0.7-0.5-1.2c0-0.3,0.1-0.6,0.3-0.9
		C2.1,8.1,2.7,7.8,3.5,7.8L3.5,7.8z"/>
	<path d="M9.5,11.9c0.2-0.2,0.4-0.2,0.6-0.1c0.2,0.1,0.3,0.3,0.3,0.5c0,0.2,0,0.4-0.2,0.5C10,13,9.8,13.1,9.4,13.2
		c-0.2,0-0.6,0.1-1.1,0c-0.4,0-0.8-0.1-1.1-0.4c-0.7-0.5-1-1.2-1.1-2.2c0-0.1,0-0.2,0-0.2c0-1,0.4-1.8,1.1-2.2
		C7.5,7.9,8,7.8,8.4,7.8c0.3,0,0.7,0.1,0.9,0.2c0.7,0.5,1.1,1.2,1.1,2.3v0.2c0,0.1,0,0.2,0,0.2c-0.1,0.2-0.3,0.4-0.5,0.4H7.4
		c0.1,0.5,0.4,0.8,0.9,0.9h0.2C9,12,9.4,12,9.5,11.9z M8.4,9L8.4,9C8.2,9,8,9.1,7.8,9.2C7.6,9.3,7.4,9.6,7.4,9.9h1.9v0
		C9.2,9.5,9,9.2,8.8,9.1C8.7,9.1,8.6,9,8.4,9L8.4,9z"/>
	<path d="M13.4,7.9c0.8,0,1.5,0.4,1.9,1.1c0.1,0.2,0.1,0.4,0,0.7c-0.1,0.2-0.3,0.3-0.6,0.3c-0.2,0-0.4-0.2-0.5-0.4
		c-0.1-0.2-0.2-0.3-0.4-0.4c-0.1,0-0.3,0-0.4,0c-0.4,0-0.7,0.1-0.8,0.3c0,0,0,0.1-0.1,0.1c-0.1,0.2-0.1,0.3-0.1,0.5v2.6
		c0,0.2-0.1,0.4-0.3,0.5c-0.2,0.1-0.4,0.1-0.6,0s-0.3-0.3-0.3-0.5V10c0.1-1,0.5-1.7,1.4-2C12.8,7.9,13.1,7.9,13.4,7.9z"/>
	<path d="M16.2,7.8c0.3,0,0.4,0.1,0.6,0.3l0,0.1c0.3,1.4,0.6,2.5,0.9,3.2l0.2,0.4c0,0,0.1,0,0.1-0.1c0.3-0.7,0.7-1.8,1.1-3.2
		c0-0.3,0.2-0.5,0.4-0.6l0.1,0c0.3-0.1,0.5,0,0.7,0.2c0.1,0.1,0.2,0.3,0.1,0.5c-0.2,0.7-0.4,1.6-0.7,2.4c-0.3,0.8-0.6,1.4-0.8,1.7
		c-0.1,0.1-0.1,0.2-0.2,0.2c-0.2,0.3-0.5,0.4-0.8,0.4c-0.1,0-0.2,0-0.2,0c-0.4-0.1-0.7-0.5-1-1.1c0,0-0.1-0.1-0.1-0.2
		c-0.4-0.8-0.7-2-1-3.4c-0.1-0.3,0-0.5,0.2-0.7C15.9,7.8,16.1,7.7,16.2,7.8z"/>
	<path d="M21.8,5.8C22,5.9,22,6.1,22,6.3v0.1c0,0.2-0.1,0.4-0.3,0.5c-0.2,0.1-0.4,0.1-0.6,0s-0.3-0.3-0.3-0.5V6.3c0-0.1,0-0.1,0-0.2
		c0.1-0.2,0.2-0.4,0.5-0.4C21.6,5.6,21.7,5.7,21.8,5.8z M21.9,8C22,8.2,22,8.3,22,8.5v4.2c0,0.2-0.1,0.4-0.3,0.5
		c-0.2,0.1-0.4,0.1-0.6,0s-0.3-0.3-0.3-0.5V8.5c0-0.1,0-0.2,0.1-0.2C21,8,21.2,7.9,21.4,7.9C21.6,7.9,21.8,7.9,21.9,8z"/>
	<path d="M25,7.9c0.5,0,0.9,0.1,1.3,0.4c0.2,0.1,0.3,0.3,0.3,0.5c0,0.2-0.2,0.4-0.4,0.5c-0.2,0.1-0.4,0.1-0.6-0.1
		c-0.2-0.1-0.4-0.1-0.6-0.1c-0.2,0-0.4,0.1-0.6,0.2c-0.3,0.2-0.5,0.7-0.5,1.3v0c0,0.7,0.2,1.1,0.5,1.3c0.2,0.1,0.4,0.2,0.6,0.2
		c0.2,0,0.4-0.1,0.6-0.2c0.2-0.2,0.4-0.2,0.6-0.1c0.2,0.1,0.3,0.3,0.4,0.5c0,0.2-0.1,0.4-0.3,0.5c-0.4,0.3-0.8,0.4-1.3,0.4
		c-0.5,0-0.9-0.1-1.2-0.4c-0.7-0.4-1-1.2-1-2.4c0-1,0.3-1.7,0.9-2.2C24,8,24.4,7.9,25,7.9z"/>
	<path d="M30.5,11.9c0.2-0.2,0.4-0.2,0.6-0.1c0.2,0.1,0.3,0.3,0.3,0.5c0,0.2,0,0.4-0.2,0.5c-0.2,0.2-0.5,0.3-0.8,0.4
		c-0.2,0-0.6,0.1-1.1,0c-0.4,0-0.8-0.1-1.1-0.4c-0.7-0.5-1-1.2-1.1-2.2c0-0.1,0-0.2,0-0.2c0-1,0.4-1.8,1.1-2.2
		c0.4-0.3,0.8-0.4,1.2-0.4c0.3,0,0.7,0.1,0.9,0.2c0.7,0.5,1.1,1.2,1.1,2.3v0.2c0,0.1,0,0.2,0,0.2c-0.1,0.2-0.3,0.4-0.5,0.4h-2.5
		c0.1,0.5,0.4,0.8,0.9,0.9h0.2C30.1,12,30.4,12,30.5,11.9z M29.4,9L29.4,9c-0.2,0-0.4,0-0.5,0.1c-0.2,0.2-0.4,0.4-0.5,0.8h1.9v0
		c-0.1-0.4-0.2-0.6-0.5-0.8C29.7,9.1,29.6,9,29.4,9L29.4,9z"/>
	<path d="M33.9,7.8c0.4,0,0.8,0.1,1.1,0.2c0.5,0.3,0.7,0.6,0.7,1c0,0.2-0.2,0.4-0.4,0.5c-0.2,0.1-0.4,0-0.6-0.2
		c-0.2-0.3-0.6-0.4-1-0.4c0,0-0.1,0-0.1,0c-0.3,0-0.4,0.2-0.5,0.4c0,0.1,0,0.2,0,0.4c0.2,0.1,0.5,0.2,0.9,0.2c0.2,0,0.4,0,0.5,0
		c0.5,0,0.9,0.3,1.2,0.7C36,11,36,11.3,36,11.6c0,0.5-0.2,0.9-0.6,1.2c-0.2,0.1-0.3,0.2-0.5,0.3c-0.8,0.3-1.5,0.3-2.1,0
		c-0.5-0.2-0.8-0.5-0.9-0.9c-0.1-0.3,0-0.5,0.3-0.6c0.2-0.2,0.5-0.1,0.7,0c0,0,0.1,0,0.1,0c0.3,0.3,0.7,0.4,1.4,0.3
		c0.3,0,0.4-0.1,0.5-0.3c0.1-0.1,0.1-0.2,0-0.3c-0.1-0.2-0.4-0.2-0.7-0.2c-0.8,0-1.3-0.1-1.7-0.5c-0.4-0.3-0.6-0.7-0.5-1.2
		c0-0.3,0.1-0.6,0.3-0.9C32.5,8.1,33.1,7.8,33.9,7.8L33.9,7.8z"/>
</g>
</svg>
