<svg xmlns="http://www.w3.org/2000/svg" viewBox="0 0 353.92 353.91"><defs><style>.cls-1{fill:#4169e1;}</style></defs><g id="Layer_2" data-name="Layer 2"><g id="Layer_2-2" data-name="Layer 2"><path class="cls-1" d="M337.33,136.88a56.68,56.68,0,0,1,0,80.15l0,0h0a56.67,56.67,0,0,1-80.15,0h0L217.05,177,177,136.87l-40.09-40.1a56.67,56.67,0,0,1,0-80.15h0a56.67,56.67,0,0,1,80.16,0h0l40.09,40.08,40.09,40.09,40.09,40.09Z"/><path class="cls-1" d="M96.79,136.88a56.67,56.67,0,0,1,0,80.16h0a56.68,56.68,0,0,1-80.15,0h0a56.67,56.67,0,0,1,0-80.16h0a56.67,56.67,0,0,1,80.16,0h0Z"/><path class="cls-1" d="M217.05,257.14a56.67,56.67,0,0,1,0,80.16h0a56.69,56.69,0,0,1-80.17,0h0a56.67,56.67,0,0,1,0-80.16h0a56.67,56.67,0,0,1,80.16,0Z"/></g></g></svg>