<?xml version="1.0" encoding="utf-8"?>
<!-- Generator: Adobe Illustrator 26.3.1, SVG Export Plug-In . SVG Version: 6.00 Build 0)  -->
<svg version="1.1" id="Layer_1" xmlns="http://www.w3.org/2000/svg" xmlns:xlink="http://www.w3.org/1999/xlink" x="0px" y="0px"
	 viewBox="0 0 72 17" style="enable-background:new 0 0 72 17;display:none;" xml:space="preserve">
<style type="text/css">
	.st0{fill:#D7E1FE;}
</style>
<g style="display:inline;">
	<path class="st0" d="M20.7,14.5c-0.4,0-0.8-0.1-1-0.4c-0.2-0.2-0.3-0.6-0.3-1c0-0.4,0.1-0.8,0.3-1.2c0.2-0.4,0.5-0.8,0.8-1.1
		c0.3-0.3,0.7-0.6,1.1-0.8c0.4-0.2,0.8-0.3,1.2-0.3c0.2,0,0.4,0,0.5,0.1c0.1,0,0.2,0.1,0.2,0.3c0,0.1,0,0.1-0.1,0.2
		c-0.1,0.1-0.1,0.1-0.2,0.1c0,0,0,0-0.1,0c-0.1,0-0.1,0-0.2,0s-0.1,0-0.2,0c-0.3,0-0.7,0.1-1,0.2c-0.3,0.2-0.6,0.4-0.9,0.6
		c-0.3,0.3-0.5,0.6-0.7,0.9c-0.2,0.3-0.3,0.7-0.3,1c0,0.5,0.3,0.8,0.8,0.8c0.4,0,0.8-0.1,1.2-0.3c0.4-0.2,0.7-0.4,1.1-0.7
		c0.3-0.3,0.7-0.6,0.9-0.9c0.3-0.3,0.5-0.6,0.8-0.9c0.5-0.7,1-1.5,1.5-2.3s0.9-1.6,1.3-2.4c0.1-0.1,0.1-0.3,0.2-0.4
		c0.1-0.1,0.1-0.3,0.2-0.4c-0.6,0-1.2-0.1-1.8-0.3c-0.6-0.2-1.2-0.3-1.8-0.5c-0.5-0.2-0.9-0.3-1.3-0.4c-0.4-0.1-0.7-0.2-1-0.3
		c-0.3-0.1-0.6-0.1-0.8-0.1c-0.2,0-0.5,0-0.7,0c-0.4,0-0.8,0.1-1.2,0.3c-0.4,0.2-0.8,0.4-1.1,0.8c-0.3,0.3-0.6,0.7-0.9,1.1
		C17,6.6,16.8,7,16.8,7.4c0,0.5,0.3,0.7,0.8,0.7c0.3,0,0.5-0.1,0.8-0.3c0.3-0.2,0.5-0.4,0.8-0.6c0.2-0.3,0.4-0.5,0.6-0.8
		c0.1-0.3,0.2-0.6,0.2-0.8c0,0,0,0,0-0.1c0,0,0-0.1,0-0.1c0-0.1,0-0.1,0.1-0.2c0.1-0.1,0.1-0.1,0.2-0.1c0.1,0,0.2,0,0.2,0.1
		s0,0.2,0,0.3c0,0.3-0.1,0.6-0.3,1c-0.2,0.4-0.4,0.7-0.7,1c-0.3,0.3-0.6,0.5-0.9,0.7s-0.7,0.3-1,0.3c-0.4,0-0.7-0.1-0.9-0.3
		c-0.2-0.2-0.3-0.5-0.3-0.9c0-0.5,0.1-0.9,0.4-1.4c0.2-0.5,0.6-0.9,1-1.2s0.8-0.7,1.3-0.9s0.9-0.3,1.4-0.3c0.2,0,0.5,0,0.7,0
		c0.2,0,0.5,0.1,0.8,0.1s0.7,0.2,1,0.3c0.4,0.1,0.9,0.2,1.4,0.4c0.7,0.2,1.3,0.4,1.9,0.5c0.6,0.2,1.2,0.2,1.8,0.2
		c0.3-0.5,0.6-1,0.8-1.5s0.5-0.8,0.8-1.2c0.3-0.3,0.5-0.6,0.8-0.8c0.3-0.2,0.6-0.3,0.9-0.3c0.3,0,0.6,0.1,0.8,0.3s0.3,0.4,0.3,0.7
		c0,0.4-0.2,0.8-0.5,1.2s-0.7,0.7-1.1,1c-0.4,0.3-0.9,0.6-1.4,0.7c-0.5,0.2-0.9,0.3-1.3,0.3c-0.1,0.2-0.2,0.3-0.3,0.5
		s-0.2,0.4-0.3,0.5c-0.4,0.8-0.9,1.6-1.3,2.4c-0.4,0.8-0.9,1.6-1.5,2.3c-0.2,0.3-0.5,0.7-0.9,1c-0.3,0.4-0.7,0.7-1,1
		S22.4,14,22,14.2C21.6,14.4,21.1,14.5,20.7,14.5z M31.4,1.9c-0.3,0-0.6,0.1-0.8,0.3c-0.3,0.2-0.5,0.5-0.8,1
		c-0.2,0.3-0.4,0.6-0.6,0.9c-0.2,0.3-0.4,0.7-0.6,1c0.4-0.1,0.9-0.2,1.3-0.5c0.4-0.2,0.8-0.5,1.1-0.7c0.3-0.3,0.6-0.5,0.8-0.8
		c0.2-0.3,0.3-0.5,0.3-0.7c0-0.1-0.1-0.3-0.2-0.3C31.8,2,31.6,1.9,31.4,1.9z"/>
	<path class="st0" d="M31.5,12.7c-0.4,0.3-0.8,0.5-1.3,0.6c-0.4,0.1-0.8,0.1-1.1,0.2c0,0.1-0.1,0.3-0.1,0.5
		c-0.1,0.2-0.1,0.4-0.2,0.6c-0.1,0.2-0.2,0.3-0.4,0.5c-0.1,0.1-0.3,0.2-0.5,0.2c-0.2,0-0.4-0.1-0.5-0.3c-0.1-0.2-0.2-0.4-0.2-0.6
		c0-0.2,0.1-0.5,0.2-0.8s0.2-0.5,0.4-0.8c0,0,0,0,0-0.1c0-0.2,0.1-0.3,0.2-0.4c0.1-0.1,0.3-0.2,0.5-0.2c0.2,0,0.4,0.1,0.5,0.2
		c0.1,0.2,0.2,0.3,0.2,0.5c0.3,0,0.6,0,1-0.1c0.4-0.1,0.7-0.3,1.1-0.5c0,0,0.1-0.1,0.2-0.1c0.1,0,0.1,0,0.2,0.1
		c0.1,0.1,0.1,0.1,0.1,0.2C31.6,12.6,31.6,12.7,31.5,12.7z M28.1,13.3c-0.1,0.2-0.2,0.4-0.3,0.5c-0.1,0.2-0.1,0.4-0.1,0.5
		c0,0.1,0,0.1,0,0.2c0,0.1,0.1,0.1,0.1,0.1c0.1,0,0.2,0,0.3-0.2s0.2-0.4,0.3-0.7c0-0.1,0.1-0.3,0.1-0.4c-0.1,0-0.2,0-0.3,0
		C28.3,13.4,28.2,13.4,28.1,13.3z M28.6,12.9l0-0.1l-0.1,0.1C28.5,12.9,28.5,12.9,28.6,12.9L28.6,12.9z"/>
	<path class="st0" d="M40.3,12.7c-0.1,0.1-0.3,0.2-0.5,0.4c-0.2,0.2-0.4,0.3-0.7,0.5c-0.2,0.2-0.5,0.3-0.7,0.4
		c-0.2,0.1-0.4,0.2-0.6,0.2c-0.5,0-0.8-0.1-1-0.4c-0.2-0.2-0.4-0.6-0.6-1c-0.1-0.3-0.2-0.5-0.3-0.6c-0.1-0.1-0.3-0.2-0.5-0.2
		c-0.2,0-0.3,0-0.5,0.1c-0.2,0.1-0.4,0.2-0.5,0.3c-0.2,0.1-0.3,0.3-0.5,0.4s-0.3,0.3-0.4,0.4c-0.1,0.1-0.1,0.1-0.2,0.2
		c-0.1,0.1-0.2,0.2-0.3,0.2c-0.1,0.1-0.2,0.1-0.3,0.2c-0.1,0.1-0.2,0.1-0.3,0.1c-0.1,0-0.2,0-0.2-0.1s-0.1-0.1-0.1-0.2
		c0-0.1-0.1-0.2-0.1-0.3c0-0.1,0-0.2,0-0.3c0-0.1,0-0.2,0-0.3c0-0.1,0-0.2,0-0.4l-0.4,0.3c0,0-0.1,0.1-0.1,0.1c-0.1,0-0.1,0-0.2-0.1
		s-0.1-0.1-0.1-0.2c0-0.1,0-0.1,0.1-0.2c0.2-0.1,0.3-0.3,0.4-0.4s0.3-0.2,0.5-0.4c0-0.1,0.1-0.4,0.2-0.7s0.2-0.7,0.3-1.2
		s0.3-0.9,0.4-1.3s0.3-0.9,0.5-1.3s0.4-0.7,0.5-0.9c0.2-0.2,0.4-0.4,0.6-0.4c0.2,0,0.4,0.1,0.5,0.3c0.1,0.2,0.1,0.3,0.1,0.5
		c0,0.4-0.1,0.8-0.3,1.3c-0.2,0.5-0.4,1-0.7,1.4c-0.3,0.5-0.6,0.9-0.9,1.4c-0.3,0.4-0.6,0.8-0.8,1.1c-0.1,0.3-0.1,0.5-0.2,0.8
		c0,0.2-0.1,0.5-0.1,0.8c0,0.2,0,0.3,0,0.3c0.1-0.1,0.2-0.1,0.3-0.3c0.1-0.1,0.2-0.2,0.3-0.3c0.1-0.1,0.3-0.3,0.5-0.5
		c0.2-0.2,0.4-0.3,0.6-0.4c0.2-0.1,0.4-0.2,0.6-0.3c0.2-0.1,0.4-0.1,0.7-0.1c0.4,0,0.6,0.1,0.8,0.3c0.2,0.2,0.3,0.5,0.5,0.8
		c0.1,0.1,0.1,0.3,0.2,0.4c0.1,0.1,0.1,0.2,0.2,0.3c0.1,0.1,0.2,0.2,0.3,0.2c0.1,0.1,0.3,0.1,0.5,0.1c0.1,0,0.3-0.1,0.5-0.2
		c0.2-0.1,0.4-0.2,0.6-0.4c0.2-0.1,0.4-0.3,0.6-0.4c0.2-0.1,0.4-0.3,0.5-0.4c0,0,0.1-0.1,0.2-0.1c0.1,0,0.1,0,0.2,0.1
		c0.1,0.1,0.1,0.1,0.1,0.2C40.4,12.6,40.4,12.7,40.3,12.7z M34.7,6.2c-0.1,0.1-0.3,0.3-0.5,0.7c-0.2,0.4-0.3,0.7-0.5,1.2
		c-0.2,0.4-0.3,0.9-0.5,1.3s-0.2,0.8-0.3,1c0.2-0.2,0.3-0.5,0.6-0.8c0.2-0.3,0.4-0.7,0.6-1c0.2-0.4,0.4-0.7,0.5-1.1
		c0.1-0.4,0.2-0.7,0.2-0.9c0,0,0-0.1,0-0.1C34.7,6.3,34.7,6.2,34.7,6.2z"/>
	<path class="st0" d="M41.1,15.1c0.2,0,0.5-0.1,0.9-0.4c0.4-0.3,1-0.8,1.9-1.4c0.2-0.2,0.4-0.4,0.6-0.5c0.2-0.2,0.4-0.3,0.5-0.4
		c0,0,0.1-0.1,0.2-0.1c0.1,0,0.1,0,0.2,0.1c0.1,0.1,0.1,0.1,0.1,0.2c0,0.1,0,0.2-0.1,0.2l-0.5,0.4c-1,0.8-1.8,1.5-2.4,1.8
		c-0.6,0.4-1,0.6-1.2,0.6c-0.2,0-0.3,0-0.4-0.1c-0.1-0.1-0.2-0.2-0.2-0.3c-0.1-0.1-0.1-0.3-0.1-0.4c0-0.2,0-0.3,0-0.5
		c0-0.1,0-0.3,0.1-0.7c0-0.3,0.1-0.7,0.2-1l-0.2,0.1c0,0-0.1,0.1-0.1,0.1c-0.1,0-0.1,0-0.2-0.1s-0.1-0.1-0.1-0.2
		c0-0.1,0-0.1,0.1-0.2c0,0,0.1-0.1,0.2-0.2c0.1-0.1,0.2-0.1,0.3-0.2c0.1-0.1,0.2-0.1,0.3-0.2c0.1-0.1,0.2-0.1,0.2-0.1
		c0.1,0,0.1,0,0.2,0.1c0.1,0.1,0.1,0.1,0.1,0.2c0,0,0,0.1,0,0.1c0,0,0,0.1,0,0.1c-0.1,0.3-0.2,0.7-0.3,1c-0.1,0.4-0.1,0.7-0.1,1.1
		c0,0.1,0,0.1,0,0.2c0,0.1,0,0.2,0,0.3c0,0.1,0.1,0.2,0.1,0.2C41,15,41,15.1,41.1,15.1z M42,7.9c0.1,0,0.2,0,0.2,0.1
		c0,0.1,0.1,0.2,0.1,0.3c0,0.1,0,0.2,0,0.2c0,0,0,0.1,0,0.2c0,0.1,0,0.1,0,0.2c0,0.1,0,0.1,0.1,0.2c0,0.1,0.1,0.1,0.1,0.2
		c0,0.1-0.1,0.1-0.2,0.1c-0.2,0-0.4,0-0.6-0.1c-0.2-0.1-0.2-0.3-0.2-0.5c0-0.2,0.1-0.4,0.2-0.5C41.7,8,41.8,7.9,42,7.9z"/>
	<path class="st0" d="M53.6,14.1c-0.2,0.1-0.5,0.3-0.8,0.5c-0.3,0.2-0.6,0.3-0.9,0.5s-0.6,0.3-0.9,0.4c-0.3,0.1-0.6,0.2-0.8,0.2
		c-0.3,0-0.5-0.1-0.6-0.2c-0.1-0.2-0.2-0.4-0.2-0.6c0-0.3,0-0.5,0.1-0.8s0.1-0.5,0.2-0.7c-0.4,0.3-0.9,0.5-1.3,0.8
		c-0.5,0.2-0.9,0.4-1.3,0.4c-0.4,0-0.6-0.1-0.8-0.4c-0.2-0.2-0.3-0.5-0.3-0.9c0-0.1,0-0.3,0.1-0.4c0-0.1,0.1-0.3,0.1-0.4
		c-0.1,0.1-0.3,0.2-0.4,0.3c-0.1,0.1-0.2,0.2-0.3,0.2c0,0-0.1,0.1-0.1,0.1c-0.1,0-0.1,0-0.2-0.1s-0.1-0.1-0.1-0.2
		c0-0.1,0-0.1,0.1-0.2c0.9-0.7,1.6-1.1,2.1-1.3c0.2-0.1,0.3-0.1,0.5-0.1c0.2,0,0.4,0,0.5,0.1c0.1,0.1,0.3,0.2,0.4,0.3
		c0.1,0.1,0.2,0.3,0.2,0.5c0.1,0.2,0.1,0.3,0.1,0.5c0,0.1,0,0.1,0,0.2c0,0.1,0,0.2-0.1,0.3c0,0.1-0.1,0.2-0.1,0.2s-0.1,0.1-0.2,0.1
		c-0.1,0-0.1,0-0.2-0.1s-0.1-0.1-0.1-0.2c0-0.1,0-0.1,0.1-0.2c0,0,0-0.1,0.1-0.2c0-0.1,0-0.1,0-0.2s0-0.2,0-0.3
		c0-0.1-0.1-0.2-0.1-0.3c-0.1-0.1-0.1-0.2-0.2-0.2c-0.1-0.1-0.2-0.1-0.3-0.1c-0.2,0-0.4,0.1-0.5,0.2c-0.2,0.1-0.3,0.3-0.4,0.4
		c-0.1,0.2-0.2,0.4-0.3,0.5c-0.1,0.2-0.1,0.4-0.1,0.5c0,0.2,0,0.4,0.1,0.5c0.1,0.1,0.3,0.2,0.5,0.2c0.2,0,0.4-0.1,0.7-0.2
		c0.3-0.1,0.5-0.2,0.8-0.4c0.3-0.2,0.5-0.3,0.8-0.5c0.2-0.2,0.5-0.3,0.6-0.5c0.1-0.2,0.2-0.5,0.3-0.9c0.2-0.4,0.3-0.8,0.5-1.3
		c0.2-0.5,0.4-0.9,0.7-1.4c0.2-0.5,0.5-0.9,0.8-1.3c0.3-0.4,0.5-0.7,0.8-1S53.4,6,53.6,6c0.2,0,0.3,0.1,0.5,0.2
		c0.1,0.2,0.2,0.3,0.2,0.5c0,0.2-0.1,0.5-0.2,0.9c-0.1,0.3-0.3,0.7-0.6,1.1c-0.2,0.4-0.5,0.8-0.8,1.2c-0.3,0.4-0.6,0.8-0.9,1.1
		c-0.3,0.4-0.6,0.7-0.9,1c-0.3,0.3-0.5,0.5-0.7,0.7c0,0.1-0.1,0.3-0.2,0.5c-0.1,0.2-0.1,0.4-0.2,0.5c0,0.2-0.1,0.4-0.1,0.5
		c0,0.2-0.1,0.3-0.1,0.5c0,0.1,0,0.2,0.1,0.3c0,0.1,0.1,0.1,0.3,0.1c0.2,0,0.4,0,0.6-0.1s0.5-0.2,0.8-0.3c0.3-0.1,0.6-0.3,0.9-0.4
		c0.3-0.2,0.6-0.3,0.9-0.5c0.1-0.1,0.3-0.2,0.4-0.2c0.1-0.1,0.3-0.2,0.4-0.3c0.1-0.1,0.3-0.2,0.5-0.3c0.2-0.1,0.4-0.3,0.6-0.5
		c0,0,0.1-0.1,0.2-0.1c0.1,0,0.1,0,0.2,0.1c0.1,0.1,0.1,0.1,0.1,0.2c0,0.1,0,0.2-0.1,0.2c-0.3,0.3-0.7,0.5-1,0.7
		S53.9,13.9,53.6,14.1z M53.6,6.5c-0.1,0-0.3,0.1-0.5,0.3C53,7,52.8,7.3,52.6,7.6c-0.2,0.3-0.4,0.7-0.6,1.1
		c-0.2,0.4-0.4,0.8-0.6,1.1c-0.2,0.4-0.3,0.7-0.5,1c-0.1,0.3-0.2,0.5-0.3,0.7c0.2-0.2,0.5-0.6,0.9-1c0.4-0.4,0.7-0.9,1-1.3
		c0.3-0.5,0.6-0.9,0.9-1.4c0.2-0.4,0.4-0.8,0.4-1.1c0-0.1,0-0.1,0-0.1C53.7,6.6,53.7,6.5,53.6,6.5z"/>
</g>
<g style="display:inline;">
	<path class="st0" d="M20.7,14.5c-0.4,0-0.8-0.1-1-0.4c-0.2-0.2-0.3-0.6-0.3-1c0-0.4,0.1-0.8,0.3-1.2c0.2-0.4,0.5-0.8,0.8-1.1
		c0.3-0.3,0.7-0.6,1.1-0.8c0.4-0.2,0.8-0.3,1.2-0.3c0.2,0,0.4,0,0.5,0.1c0.1,0,0.2,0.1,0.2,0.3c0,0.1,0,0.1-0.1,0.2
		c-0.1,0.1-0.1,0.1-0.2,0.1c0,0,0,0-0.1,0c-0.1,0-0.1,0-0.2,0s-0.1,0-0.2,0c-0.3,0-0.7,0.1-1,0.2c-0.3,0.2-0.6,0.4-0.9,0.6
		c-0.3,0.3-0.5,0.6-0.7,0.9c-0.2,0.3-0.3,0.7-0.3,1c0,0.5,0.3,0.8,0.8,0.8c0.4,0,0.8-0.1,1.2-0.3c0.4-0.2,0.7-0.4,1.1-0.7
		c0.3-0.3,0.7-0.6,0.9-0.9c0.3-0.3,0.5-0.6,0.8-0.9c0.5-0.7,1-1.5,1.5-2.3s0.9-1.6,1.3-2.4c0.1-0.1,0.1-0.3,0.2-0.4
		c0.1-0.1,0.1-0.3,0.2-0.4c-0.6,0-1.2-0.1-1.8-0.3c-0.6-0.2-1.2-0.3-1.8-0.5c-0.5-0.2-0.9-0.3-1.3-0.4c-0.4-0.1-0.7-0.2-1-0.3
		c-0.3-0.1-0.6-0.1-0.8-0.1c-0.2,0-0.5,0-0.7,0c-0.4,0-0.8,0.1-1.2,0.3c-0.4,0.2-0.8,0.4-1.1,0.8c-0.3,0.3-0.6,0.7-0.9,1.1
		C17,6.6,16.8,7,16.8,7.4c0,0.5,0.3,0.7,0.8,0.7c0.3,0,0.5-0.1,0.8-0.3c0.3-0.2,0.5-0.4,0.8-0.6c0.2-0.3,0.4-0.5,0.6-0.8
		c0.1-0.3,0.2-0.6,0.2-0.8c0,0,0,0,0-0.1c0,0,0-0.1,0-0.1c0-0.1,0-0.1,0.1-0.2c0.1-0.1,0.1-0.1,0.2-0.1c0.1,0,0.2,0,0.2,0.1
		s0,0.2,0,0.3c0,0.3-0.1,0.6-0.3,1c-0.2,0.4-0.4,0.7-0.7,1c-0.3,0.3-0.6,0.5-0.9,0.7s-0.7,0.3-1,0.3c-0.4,0-0.7-0.1-0.9-0.3
		c-0.2-0.2-0.3-0.5-0.3-0.9c0-0.5,0.1-0.9,0.4-1.4c0.2-0.5,0.6-0.9,1-1.2s0.8-0.7,1.3-0.9s0.9-0.3,1.4-0.3c0.2,0,0.5,0,0.7,0
		c0.2,0,0.5,0.1,0.8,0.1s0.7,0.2,1,0.3c0.4,0.1,0.9,0.2,1.4,0.4c0.7,0.2,1.3,0.4,1.9,0.5c0.6,0.2,1.2,0.2,1.8,0.2
		c0.3-0.5,0.6-1,0.8-1.5s0.5-0.8,0.8-1.2c0.3-0.3,0.5-0.6,0.8-0.8c0.3-0.2,0.6-0.3,0.9-0.3c0.3,0,0.6,0.1,0.8,0.3s0.3,0.4,0.3,0.7
		c0,0.4-0.2,0.8-0.5,1.2s-0.7,0.7-1.1,1c-0.4,0.3-0.9,0.6-1.4,0.7c-0.5,0.2-0.9,0.3-1.3,0.3c-0.1,0.2-0.2,0.3-0.3,0.5
		s-0.2,0.4-0.3,0.5c-0.4,0.8-0.9,1.6-1.3,2.4c-0.4,0.8-0.9,1.6-1.5,2.3c-0.2,0.3-0.5,0.7-0.9,1c-0.3,0.4-0.7,0.7-1,1
		S22.4,14,22,14.2C21.6,14.4,21.1,14.5,20.7,14.5z M31.4,1.9c-0.3,0-0.6,0.1-0.8,0.3c-0.3,0.2-0.5,0.5-0.8,1
		c-0.2,0.3-0.4,0.6-0.6,0.9c-0.2,0.3-0.4,0.7-0.6,1c0.4-0.1,0.9-0.2,1.3-0.5c0.4-0.2,0.8-0.5,1.1-0.7c0.3-0.3,0.6-0.5,0.8-0.8
		c0.2-0.3,0.3-0.5,0.3-0.7c0-0.1-0.1-0.3-0.2-0.3C31.8,2,31.6,1.9,31.4,1.9z"/>
	<path class="st0" d="M31.5,12.7c-0.4,0.3-0.8,0.5-1.3,0.6c-0.4,0.1-0.8,0.1-1.1,0.2c0,0.1-0.1,0.3-0.1,0.5
		c-0.1,0.2-0.1,0.4-0.2,0.6c-0.1,0.2-0.2,0.3-0.4,0.5c-0.1,0.1-0.3,0.2-0.5,0.2c-0.2,0-0.4-0.1-0.5-0.3c-0.1-0.2-0.2-0.4-0.2-0.6
		c0-0.2,0.1-0.5,0.2-0.8s0.2-0.5,0.4-0.8c0,0,0,0,0-0.1c0-0.2,0.1-0.3,0.2-0.4c0.1-0.1,0.3-0.2,0.5-0.2c0.2,0,0.4,0.1,0.5,0.2
		c0.1,0.2,0.2,0.3,0.2,0.5c0.3,0,0.6,0,1-0.1c0.4-0.1,0.7-0.3,1.1-0.5c0,0,0.1-0.1,0.2-0.1c0.1,0,0.1,0,0.2,0.1
		c0.1,0.1,0.1,0.1,0.1,0.2C31.6,12.6,31.6,12.7,31.5,12.7z M28.1,13.3c-0.1,0.2-0.2,0.4-0.3,0.5c-0.1,0.2-0.1,0.4-0.1,0.5
		c0,0.1,0,0.1,0,0.2c0,0.1,0.1,0.1,0.1,0.1c0.1,0,0.2,0,0.3-0.2s0.2-0.4,0.3-0.7c0-0.1,0.1-0.3,0.1-0.4c-0.1,0-0.2,0-0.3,0
		C28.3,13.4,28.2,13.4,28.1,13.3z M28.6,12.9l0-0.1l-0.1,0.1C28.5,12.9,28.5,12.9,28.6,12.9L28.6,12.9z"/>
	<path class="st0" d="M40.3,12.7c-0.1,0.1-0.3,0.2-0.5,0.4c-0.2,0.2-0.4,0.3-0.7,0.5c-0.2,0.2-0.5,0.3-0.7,0.4
		c-0.2,0.1-0.4,0.2-0.6,0.2c-0.5,0-0.8-0.1-1-0.4c-0.2-0.2-0.4-0.6-0.6-1c-0.1-0.3-0.2-0.5-0.3-0.6c-0.1-0.1-0.3-0.2-0.5-0.2
		c-0.2,0-0.3,0-0.5,0.1c-0.2,0.1-0.4,0.2-0.5,0.3c-0.2,0.1-0.3,0.3-0.5,0.4s-0.3,0.3-0.4,0.4c-0.1,0.1-0.1,0.1-0.2,0.2
		c-0.1,0.1-0.2,0.2-0.3,0.2c-0.1,0.1-0.2,0.1-0.3,0.2c-0.1,0.1-0.2,0.1-0.3,0.1c-0.1,0-0.2,0-0.2-0.1s-0.1-0.1-0.1-0.2
		c0-0.1-0.1-0.2-0.1-0.3c0-0.1,0-0.2,0-0.3c0-0.1,0-0.2,0-0.3c0-0.1,0-0.2,0-0.4l-0.4,0.3c0,0-0.1,0.1-0.1,0.1c-0.1,0-0.1,0-0.2-0.1
		s-0.1-0.1-0.1-0.2c0-0.1,0-0.1,0.1-0.2c0.2-0.1,0.3-0.3,0.4-0.4s0.3-0.2,0.5-0.4c0-0.1,0.1-0.4,0.2-0.7s0.2-0.7,0.3-1.2
		s0.3-0.9,0.4-1.3s0.3-0.9,0.5-1.3s0.4-0.7,0.5-0.9c0.2-0.2,0.4-0.4,0.6-0.4c0.2,0,0.4,0.1,0.5,0.3c0.1,0.2,0.1,0.3,0.1,0.5
		c0,0.4-0.1,0.8-0.3,1.3c-0.2,0.5-0.4,1-0.7,1.4c-0.3,0.5-0.6,0.9-0.9,1.4c-0.3,0.4-0.6,0.8-0.8,1.1c-0.1,0.3-0.1,0.5-0.2,0.8
		c0,0.2-0.1,0.5-0.1,0.8c0,0.2,0,0.3,0,0.3c0.1-0.1,0.2-0.1,0.3-0.3c0.1-0.1,0.2-0.2,0.3-0.3c0.1-0.1,0.3-0.3,0.5-0.5
		c0.2-0.2,0.4-0.3,0.6-0.4c0.2-0.1,0.4-0.2,0.6-0.3c0.2-0.1,0.4-0.1,0.7-0.1c0.4,0,0.6,0.1,0.8,0.3c0.2,0.2,0.3,0.5,0.5,0.8
		c0.1,0.1,0.1,0.3,0.2,0.4c0.1,0.1,0.1,0.2,0.2,0.3c0.1,0.1,0.2,0.2,0.3,0.2c0.1,0.1,0.3,0.1,0.5,0.1c0.1,0,0.3-0.1,0.5-0.2
		c0.2-0.1,0.4-0.2,0.6-0.4c0.2-0.1,0.4-0.3,0.6-0.4c0.2-0.1,0.4-0.3,0.5-0.4c0,0,0.1-0.1,0.2-0.1c0.1,0,0.1,0,0.2,0.1
		c0.1,0.1,0.1,0.1,0.1,0.2C40.4,12.6,40.4,12.7,40.3,12.7z M34.7,6.2c-0.1,0.1-0.3,0.3-0.5,0.7c-0.2,0.4-0.3,0.7-0.5,1.2
		c-0.2,0.4-0.3,0.9-0.5,1.3s-0.2,0.8-0.3,1c0.2-0.2,0.3-0.5,0.6-0.8c0.2-0.3,0.4-0.7,0.6-1c0.2-0.4,0.4-0.7,0.5-1.1
		c0.1-0.4,0.2-0.7,0.2-0.9c0,0,0-0.1,0-0.1C34.7,6.3,34.7,6.2,34.7,6.2z"/>
	<path class="st0" d="M41.1,15.1c0.2,0,0.5-0.1,0.9-0.4c0.4-0.3,1-0.8,1.9-1.4c0.2-0.2,0.4-0.4,0.6-0.5c0.2-0.2,0.4-0.3,0.5-0.4
		c0,0,0.1-0.1,0.2-0.1c0.1,0,0.1,0,0.2,0.1c0.1,0.1,0.1,0.1,0.1,0.2c0,0.1,0,0.2-0.1,0.2l-0.5,0.4c-1,0.8-1.8,1.5-2.4,1.8
		c-0.6,0.4-1,0.6-1.2,0.6c-0.2,0-0.3,0-0.4-0.1c-0.1-0.1-0.2-0.2-0.2-0.3c-0.1-0.1-0.1-0.3-0.1-0.4c0-0.2,0-0.3,0-0.5
		c0-0.1,0-0.3,0.1-0.7c0-0.3,0.1-0.7,0.2-1l-0.2,0.1c0,0-0.1,0.1-0.1,0.1c-0.1,0-0.1,0-0.2-0.1s-0.1-0.1-0.1-0.2
		c0-0.1,0-0.1,0.1-0.2c0,0,0.1-0.1,0.2-0.2c0.1-0.1,0.2-0.1,0.3-0.2c0.1-0.1,0.2-0.1,0.3-0.2c0.1-0.1,0.2-0.1,0.2-0.1
		c0.1,0,0.1,0,0.2,0.1c0.1,0.1,0.1,0.1,0.1,0.2c0,0,0,0.1,0,0.1c0,0,0,0.1,0,0.1c-0.1,0.3-0.2,0.7-0.3,1c-0.1,0.4-0.1,0.7-0.1,1.1
		c0,0.1,0,0.1,0,0.2c0,0.1,0,0.2,0,0.3c0,0.1,0.1,0.2,0.1,0.2C41,15,41,15.1,41.1,15.1z M42,7.9c0.1,0,0.2,0,0.2,0.1
		c0,0.1,0.1,0.2,0.1,0.3c0,0.1,0,0.2,0,0.2c0,0,0,0.1,0,0.2c0,0.1,0,0.1,0,0.2c0,0.1,0,0.1,0.1,0.2c0,0.1,0.1,0.1,0.1,0.2
		c0,0.1-0.1,0.1-0.2,0.1c-0.2,0-0.4,0-0.6-0.1c-0.2-0.1-0.2-0.3-0.2-0.5c0-0.2,0.1-0.4,0.2-0.5C41.7,8,41.8,7.9,42,7.9z"/>
	<path class="st0" d="M53.6,14.1c-0.2,0.1-0.5,0.3-0.8,0.5c-0.3,0.2-0.6,0.3-0.9,0.5s-0.6,0.3-0.9,0.4c-0.3,0.1-0.6,0.2-0.8,0.2
		c-0.3,0-0.5-0.1-0.6-0.2c-0.1-0.2-0.2-0.4-0.2-0.6c0-0.3,0-0.5,0.1-0.8s0.1-0.5,0.2-0.7c-0.4,0.3-0.9,0.5-1.3,0.8
		c-0.5,0.2-0.9,0.4-1.3,0.4c-0.4,0-0.6-0.1-0.8-0.4c-0.2-0.2-0.3-0.5-0.3-0.9c0-0.1,0-0.3,0.1-0.4c0-0.1,0.1-0.3,0.1-0.4
		c-0.1,0.1-0.3,0.2-0.4,0.3c-0.1,0.1-0.2,0.2-0.3,0.2c0,0-0.1,0.1-0.1,0.1c-0.1,0-0.1,0-0.2-0.1s-0.1-0.1-0.1-0.2
		c0-0.1,0-0.1,0.1-0.2c0.9-0.7,1.6-1.1,2.1-1.3c0.2-0.1,0.3-0.1,0.5-0.1c0.2,0,0.4,0,0.5,0.1c0.1,0.1,0.3,0.2,0.4,0.3
		c0.1,0.1,0.2,0.3,0.2,0.5c0.1,0.2,0.1,0.3,0.1,0.5c0,0.1,0,0.1,0,0.2c0,0.1,0,0.2-0.1,0.3c0,0.1-0.1,0.2-0.1,0.2s-0.1,0.1-0.2,0.1
		c-0.1,0-0.1,0-0.2-0.1s-0.1-0.1-0.1-0.2c0-0.1,0-0.1,0.1-0.2c0,0,0-0.1,0.1-0.2c0-0.1,0-0.1,0-0.2s0-0.2,0-0.3
		c0-0.1-0.1-0.2-0.1-0.3c-0.1-0.1-0.1-0.2-0.2-0.2c-0.1-0.1-0.2-0.1-0.3-0.1c-0.2,0-0.4,0.1-0.5,0.2c-0.2,0.1-0.3,0.3-0.4,0.4
		c-0.1,0.2-0.2,0.4-0.3,0.5c-0.1,0.2-0.1,0.4-0.1,0.5c0,0.2,0,0.4,0.1,0.5c0.1,0.1,0.3,0.2,0.5,0.2c0.2,0,0.4-0.1,0.7-0.2
		c0.3-0.1,0.5-0.2,0.8-0.4c0.3-0.2,0.5-0.3,0.8-0.5c0.2-0.2,0.5-0.3,0.6-0.5c0.1-0.2,0.2-0.5,0.3-0.9c0.2-0.4,0.3-0.8,0.5-1.3
		c0.2-0.5,0.4-0.9,0.7-1.4c0.2-0.5,0.5-0.9,0.8-1.3c0.3-0.4,0.5-0.7,0.8-1S53.4,6,53.6,6c0.2,0,0.3,0.1,0.5,0.2
		c0.1,0.2,0.2,0.3,0.2,0.5c0,0.2-0.1,0.5-0.2,0.9c-0.1,0.3-0.3,0.7-0.6,1.1c-0.2,0.4-0.5,0.8-0.8,1.2c-0.3,0.4-0.6,0.8-0.9,1.1
		c-0.3,0.4-0.6,0.7-0.9,1c-0.3,0.3-0.5,0.5-0.7,0.7c0,0.1-0.1,0.3-0.2,0.5c-0.1,0.2-0.1,0.4-0.2,0.5c0,0.2-0.1,0.4-0.1,0.5
		c0,0.2-0.1,0.3-0.1,0.5c0,0.1,0,0.2,0.1,0.3c0,0.1,0.1,0.1,0.3,0.1c0.2,0,0.4,0,0.6-0.1s0.5-0.2,0.8-0.3c0.3-0.1,0.6-0.3,0.9-0.4
		c0.3-0.2,0.6-0.3,0.9-0.5c0.1-0.1,0.3-0.2,0.4-0.2c0.1-0.1,0.3-0.2,0.4-0.3c0.1-0.1,0.3-0.2,0.5-0.3c0.2-0.1,0.4-0.3,0.6-0.5
		c0,0,0.1-0.1,0.2-0.1c0.1,0,0.1,0,0.2,0.1c0.1,0.1,0.1,0.1,0.1,0.2c0,0.1,0,0.2-0.1,0.2c-0.3,0.3-0.7,0.5-1,0.7
		S53.9,13.9,53.6,14.1z M53.6,6.5c-0.1,0-0.3,0.1-0.5,0.3C53,7,52.8,7.3,52.6,7.6c-0.2,0.3-0.4,0.7-0.6,1.1
		c-0.2,0.4-0.4,0.8-0.6,1.1c-0.2,0.4-0.3,0.7-0.5,1c-0.1,0.3-0.2,0.5-0.3,0.7c0.2-0.2,0.5-0.6,0.9-1c0.4-0.4,0.7-0.9,1-1.3
		c0.3-0.5,0.6-0.9,0.9-1.4c0.2-0.4,0.4-0.8,0.4-1.1c0-0.1,0-0.1,0-0.1C53.7,6.6,53.7,6.5,53.6,6.5z"/>
</g>
<g style="display:inline;">
	<path class="st0" d="M20.7,14.5c-0.4,0-0.8-0.1-1-0.4c-0.2-0.2-0.3-0.6-0.3-1c0-0.4,0.1-0.8,0.3-1.2c0.2-0.4,0.5-0.8,0.8-1.1
		c0.3-0.3,0.7-0.6,1.1-0.8c0.4-0.2,0.8-0.3,1.2-0.3c0.2,0,0.4,0,0.5,0.1c0.1,0,0.2,0.1,0.2,0.3c0,0.1,0,0.1-0.1,0.2
		c-0.1,0.1-0.1,0.1-0.2,0.1c0,0,0,0-0.1,0c-0.1,0-0.1,0-0.2,0s-0.1,0-0.2,0c-0.3,0-0.7,0.1-1,0.2c-0.3,0.2-0.6,0.4-0.9,0.6
		c-0.3,0.3-0.5,0.6-0.7,0.9c-0.2,0.3-0.3,0.7-0.3,1c0,0.5,0.3,0.8,0.8,0.8c0.4,0,0.8-0.1,1.2-0.3c0.4-0.2,0.7-0.4,1.1-0.7
		c0.3-0.3,0.7-0.6,0.9-0.9c0.3-0.3,0.5-0.6,0.8-0.9c0.5-0.7,1-1.5,1.5-2.3s0.9-1.6,1.3-2.4c0.1-0.1,0.1-0.3,0.2-0.4
		c0.1-0.1,0.1-0.3,0.2-0.4c-0.6,0-1.2-0.1-1.8-0.3c-0.6-0.2-1.2-0.3-1.8-0.5c-0.5-0.2-0.9-0.3-1.3-0.4c-0.4-0.1-0.7-0.2-1-0.3
		c-0.3-0.1-0.6-0.1-0.8-0.1c-0.2,0-0.5,0-0.7,0c-0.4,0-0.8,0.1-1.2,0.3c-0.4,0.2-0.8,0.4-1.1,0.8c-0.3,0.3-0.6,0.7-0.9,1.1
		C17,6.6,16.8,7,16.8,7.4c0,0.5,0.3,0.7,0.8,0.7c0.3,0,0.5-0.1,0.8-0.3c0.3-0.2,0.5-0.4,0.8-0.6c0.2-0.3,0.4-0.5,0.6-0.8
		c0.1-0.3,0.2-0.6,0.2-0.8c0,0,0,0,0-0.1c0,0,0-0.1,0-0.1c0-0.1,0-0.1,0.1-0.2c0.1-0.1,0.1-0.1,0.2-0.1c0.1,0,0.2,0,0.2,0.1
		s0,0.2,0,0.3c0,0.3-0.1,0.6-0.3,1c-0.2,0.4-0.4,0.7-0.7,1c-0.3,0.3-0.6,0.5-0.9,0.7s-0.7,0.3-1,0.3c-0.4,0-0.7-0.1-0.9-0.3
		c-0.2-0.2-0.3-0.5-0.3-0.9c0-0.5,0.1-0.9,0.4-1.4c0.2-0.5,0.6-0.9,1-1.2s0.8-0.7,1.3-0.9s0.9-0.3,1.4-0.3c0.2,0,0.5,0,0.7,0
		c0.2,0,0.5,0.1,0.8,0.1s0.7,0.2,1,0.3c0.4,0.1,0.9,0.2,1.4,0.4c0.7,0.2,1.3,0.4,1.9,0.5c0.6,0.2,1.2,0.2,1.8,0.2
		c0.3-0.5,0.6-1,0.8-1.5s0.5-0.8,0.8-1.2c0.3-0.3,0.5-0.6,0.8-0.8c0.3-0.2,0.6-0.3,0.9-0.3c0.3,0,0.6,0.1,0.8,0.3s0.3,0.4,0.3,0.7
		c0,0.4-0.2,0.8-0.5,1.2s-0.7,0.7-1.1,1c-0.4,0.3-0.9,0.6-1.4,0.7c-0.5,0.2-0.9,0.3-1.3,0.3c-0.1,0.2-0.2,0.3-0.3,0.5
		s-0.2,0.4-0.3,0.5c-0.4,0.8-0.9,1.6-1.3,2.4c-0.4,0.8-0.9,1.6-1.5,2.3c-0.2,0.3-0.5,0.7-0.9,1c-0.3,0.4-0.7,0.7-1,1
		S22.4,14,22,14.2C21.6,14.4,21.1,14.5,20.7,14.5z M31.4,1.9c-0.3,0-0.6,0.1-0.8,0.3c-0.3,0.2-0.5,0.5-0.8,1
		c-0.2,0.3-0.4,0.6-0.6,0.9c-0.2,0.3-0.4,0.7-0.6,1c0.4-0.1,0.9-0.2,1.3-0.5c0.4-0.2,0.8-0.5,1.1-0.7c0.3-0.3,0.6-0.5,0.8-0.8
		c0.2-0.3,0.3-0.5,0.3-0.7c0-0.1-0.1-0.3-0.2-0.3C31.8,2,31.6,1.9,31.4,1.9z"/>
	<path class="st0" d="M31.5,12.7c-0.4,0.3-0.8,0.5-1.3,0.6c-0.4,0.1-0.8,0.1-1.1,0.2c0,0.1-0.1,0.3-0.1,0.5
		c-0.1,0.2-0.1,0.4-0.2,0.6c-0.1,0.2-0.2,0.3-0.4,0.5c-0.1,0.1-0.3,0.2-0.5,0.2c-0.2,0-0.4-0.1-0.5-0.3c-0.1-0.2-0.2-0.4-0.2-0.6
		c0-0.2,0.1-0.5,0.2-0.8s0.2-0.5,0.4-0.8c0,0,0,0,0-0.1c0-0.2,0.1-0.3,0.2-0.4c0.1-0.1,0.3-0.2,0.5-0.2c0.2,0,0.4,0.1,0.5,0.2
		c0.1,0.2,0.2,0.3,0.2,0.5c0.3,0,0.6,0,1-0.1c0.4-0.1,0.7-0.3,1.1-0.5c0,0,0.1-0.1,0.2-0.1c0.1,0,0.1,0,0.2,0.1
		c0.1,0.1,0.1,0.1,0.1,0.2C31.6,12.6,31.6,12.7,31.5,12.7z M28.1,13.3c-0.1,0.2-0.2,0.4-0.3,0.5c-0.1,0.2-0.1,0.4-0.1,0.5
		c0,0.1,0,0.1,0,0.2c0,0.1,0.1,0.1,0.1,0.1c0.1,0,0.2,0,0.3-0.2s0.2-0.4,0.3-0.7c0-0.1,0.1-0.3,0.1-0.4c-0.1,0-0.2,0-0.3,0
		C28.3,13.4,28.2,13.4,28.1,13.3z M28.6,12.9l0-0.1l-0.1,0.1C28.5,12.9,28.5,12.9,28.6,12.9L28.6,12.9z"/>
	<path class="st0" d="M40.3,12.7c-0.1,0.1-0.3,0.2-0.5,0.4c-0.2,0.2-0.4,0.3-0.7,0.5c-0.2,0.2-0.5,0.3-0.7,0.4
		c-0.2,0.1-0.4,0.2-0.6,0.2c-0.5,0-0.8-0.1-1-0.4c-0.2-0.2-0.4-0.6-0.6-1c-0.1-0.3-0.2-0.5-0.3-0.6c-0.1-0.1-0.3-0.2-0.5-0.2
		c-0.2,0-0.3,0-0.5,0.1c-0.2,0.1-0.4,0.2-0.5,0.3c-0.2,0.1-0.3,0.3-0.5,0.4s-0.3,0.3-0.4,0.4c-0.1,0.1-0.1,0.1-0.2,0.2
		c-0.1,0.1-0.2,0.2-0.3,0.2c-0.1,0.1-0.2,0.1-0.3,0.2c-0.1,0.1-0.2,0.1-0.3,0.1c-0.1,0-0.2,0-0.2-0.1s-0.1-0.1-0.1-0.2
		c0-0.1-0.1-0.2-0.1-0.3c0-0.1,0-0.2,0-0.3c0-0.1,0-0.2,0-0.3c0-0.1,0-0.2,0-0.4l-0.4,0.3c0,0-0.1,0.1-0.1,0.1c-0.1,0-0.1,0-0.2-0.1
		s-0.1-0.1-0.1-0.2c0-0.1,0-0.1,0.1-0.2c0.2-0.1,0.3-0.3,0.4-0.4s0.3-0.2,0.5-0.4c0-0.1,0.1-0.4,0.2-0.7s0.2-0.7,0.3-1.2
		s0.3-0.9,0.4-1.3s0.3-0.9,0.5-1.3s0.4-0.7,0.5-0.9c0.2-0.2,0.4-0.4,0.6-0.4c0.2,0,0.4,0.1,0.5,0.3c0.1,0.2,0.1,0.3,0.1,0.5
		c0,0.4-0.1,0.8-0.3,1.3c-0.2,0.5-0.4,1-0.7,1.4c-0.3,0.5-0.6,0.9-0.9,1.4c-0.3,0.4-0.6,0.8-0.8,1.1c-0.1,0.3-0.1,0.5-0.2,0.8
		c0,0.2-0.1,0.5-0.1,0.8c0,0.2,0,0.3,0,0.3c0.1-0.1,0.2-0.1,0.3-0.3c0.1-0.1,0.2-0.2,0.3-0.3c0.1-0.1,0.3-0.3,0.5-0.5
		c0.2-0.2,0.4-0.3,0.6-0.4c0.2-0.1,0.4-0.2,0.6-0.3c0.2-0.1,0.4-0.1,0.7-0.1c0.4,0,0.6,0.1,0.8,0.3c0.2,0.2,0.3,0.5,0.5,0.8
		c0.1,0.1,0.1,0.3,0.2,0.4c0.1,0.1,0.1,0.2,0.2,0.3c0.1,0.1,0.2,0.2,0.3,0.2c0.1,0.1,0.3,0.1,0.5,0.1c0.1,0,0.3-0.1,0.5-0.2
		c0.2-0.1,0.4-0.2,0.6-0.4c0.2-0.1,0.4-0.3,0.6-0.4c0.2-0.1,0.4-0.3,0.5-0.4c0,0,0.1-0.1,0.2-0.1c0.1,0,0.1,0,0.2,0.1
		c0.1,0.1,0.1,0.1,0.1,0.2C40.4,12.6,40.4,12.7,40.3,12.7z M34.7,6.2c-0.1,0.1-0.3,0.3-0.5,0.7c-0.2,0.4-0.3,0.7-0.5,1.2
		c-0.2,0.4-0.3,0.9-0.5,1.3s-0.2,0.8-0.3,1c0.2-0.2,0.3-0.5,0.6-0.8c0.2-0.3,0.4-0.7,0.6-1c0.2-0.4,0.4-0.7,0.5-1.1
		c0.1-0.4,0.2-0.7,0.2-0.9c0,0,0-0.1,0-0.1C34.7,6.3,34.7,6.2,34.7,6.2z"/>
	<path class="st0" d="M41.1,15.1c0.2,0,0.5-0.1,0.9-0.4c0.4-0.3,1-0.8,1.9-1.4c0.2-0.2,0.4-0.4,0.6-0.5c0.2-0.2,0.4-0.3,0.5-0.4
		c0,0,0.1-0.1,0.2-0.1c0.1,0,0.1,0,0.2,0.1c0.1,0.1,0.1,0.1,0.1,0.2c0,0.1,0,0.2-0.1,0.2l-0.5,0.4c-1,0.8-1.8,1.5-2.4,1.8
		c-0.6,0.4-1,0.6-1.2,0.6c-0.2,0-0.3,0-0.4-0.1c-0.1-0.1-0.2-0.2-0.2-0.3c-0.1-0.1-0.1-0.3-0.1-0.4c0-0.2,0-0.3,0-0.5
		c0-0.1,0-0.3,0.1-0.7c0-0.3,0.1-0.7,0.2-1l-0.2,0.1c0,0-0.1,0.1-0.1,0.1c-0.1,0-0.1,0-0.2-0.1s-0.1-0.1-0.1-0.2
		c0-0.1,0-0.1,0.1-0.2c0,0,0.1-0.1,0.2-0.2c0.1-0.1,0.2-0.1,0.3-0.2c0.1-0.1,0.2-0.1,0.3-0.2c0.1-0.1,0.2-0.1,0.2-0.1
		c0.1,0,0.1,0,0.2,0.1c0.1,0.1,0.1,0.1,0.1,0.2c0,0,0,0.1,0,0.1c0,0,0,0.1,0,0.1c-0.1,0.3-0.2,0.7-0.3,1c-0.1,0.4-0.1,0.7-0.1,1.1
		c0,0.1,0,0.1,0,0.2c0,0.1,0,0.2,0,0.3c0,0.1,0.1,0.2,0.1,0.2C41,15,41,15.1,41.1,15.1z M42,7.9c0.1,0,0.2,0,0.2,0.1
		c0,0.1,0.1,0.2,0.1,0.3c0,0.1,0,0.2,0,0.2c0,0,0,0.1,0,0.2c0,0.1,0,0.1,0,0.2c0,0.1,0,0.1,0.1,0.2c0,0.1,0.1,0.1,0.1,0.2
		c0,0.1-0.1,0.1-0.2,0.1c-0.2,0-0.4,0-0.6-0.1c-0.2-0.1-0.2-0.3-0.2-0.5c0-0.2,0.1-0.4,0.2-0.5C41.7,8,41.8,7.9,42,7.9z"/>
	<path class="st0" d="M53.6,14.1c-0.2,0.1-0.5,0.3-0.8,0.5c-0.3,0.2-0.6,0.3-0.9,0.5s-0.6,0.3-0.9,0.4c-0.3,0.1-0.6,0.2-0.8,0.2
		c-0.3,0-0.5-0.1-0.6-0.2c-0.1-0.2-0.2-0.4-0.2-0.6c0-0.3,0-0.5,0.1-0.8s0.1-0.5,0.2-0.7c-0.4,0.3-0.9,0.5-1.3,0.8
		c-0.5,0.2-0.9,0.4-1.3,0.4c-0.4,0-0.6-0.1-0.8-0.4c-0.2-0.2-0.3-0.5-0.3-0.9c0-0.1,0-0.3,0.1-0.4c0-0.1,0.1-0.3,0.1-0.4
		c-0.1,0.1-0.3,0.2-0.4,0.3c-0.1,0.1-0.2,0.2-0.3,0.2c0,0-0.1,0.1-0.1,0.1c-0.1,0-0.1,0-0.2-0.1s-0.1-0.1-0.1-0.2
		c0-0.1,0-0.1,0.1-0.2c0.9-0.7,1.6-1.1,2.1-1.3c0.2-0.1,0.3-0.1,0.5-0.1c0.2,0,0.4,0,0.5,0.1c0.1,0.1,0.3,0.2,0.4,0.3
		c0.1,0.1,0.2,0.3,0.2,0.5c0.1,0.2,0.1,0.3,0.1,0.5c0,0.1,0,0.1,0,0.2c0,0.1,0,0.2-0.1,0.3c0,0.1-0.1,0.2-0.1,0.2s-0.1,0.1-0.2,0.1
		c-0.1,0-0.1,0-0.2-0.1s-0.1-0.1-0.1-0.2c0-0.1,0-0.1,0.1-0.2c0,0,0-0.1,0.1-0.2c0-0.1,0-0.1,0-0.2s0-0.2,0-0.3
		c0-0.1-0.1-0.2-0.1-0.3c-0.1-0.1-0.1-0.2-0.2-0.2c-0.1-0.1-0.2-0.1-0.3-0.1c-0.2,0-0.4,0.1-0.5,0.2c-0.2,0.1-0.3,0.3-0.4,0.4
		c-0.1,0.2-0.2,0.4-0.3,0.5c-0.1,0.2-0.1,0.4-0.1,0.5c0,0.2,0,0.4,0.1,0.5c0.1,0.1,0.3,0.2,0.5,0.2c0.2,0,0.4-0.1,0.7-0.2
		c0.3-0.1,0.5-0.2,0.8-0.4c0.3-0.2,0.5-0.3,0.8-0.5c0.2-0.2,0.5-0.3,0.6-0.5c0.1-0.2,0.2-0.5,0.3-0.9c0.2-0.4,0.3-0.8,0.5-1.3
		c0.2-0.5,0.4-0.9,0.7-1.4c0.2-0.5,0.5-0.9,0.8-1.3c0.3-0.4,0.5-0.7,0.8-1S53.4,6,53.6,6c0.2,0,0.3,0.1,0.5,0.2
		c0.1,0.2,0.2,0.3,0.2,0.5c0,0.2-0.1,0.5-0.2,0.9c-0.1,0.3-0.3,0.7-0.6,1.1c-0.2,0.4-0.5,0.8-0.8,1.2c-0.3,0.4-0.6,0.8-0.9,1.1
		c-0.3,0.4-0.6,0.7-0.9,1c-0.3,0.3-0.5,0.5-0.7,0.7c0,0.1-0.1,0.3-0.2,0.5c-0.1,0.2-0.1,0.4-0.2,0.5c0,0.2-0.1,0.4-0.1,0.5
		c0,0.2-0.1,0.3-0.1,0.5c0,0.1,0,0.2,0.1,0.3c0,0.1,0.1,0.1,0.3,0.1c0.2,0,0.4,0,0.6-0.1s0.5-0.2,0.8-0.3c0.3-0.1,0.6-0.3,0.9-0.4
		c0.3-0.2,0.6-0.3,0.9-0.5c0.1-0.1,0.3-0.2,0.4-0.2c0.1-0.1,0.3-0.2,0.4-0.3c0.1-0.1,0.3-0.2,0.5-0.3c0.2-0.1,0.4-0.3,0.6-0.5
		c0,0,0.1-0.1,0.2-0.1c0.1,0,0.1,0,0.2,0.1c0.1,0.1,0.1,0.1,0.1,0.2c0,0.1,0,0.2-0.1,0.2c-0.3,0.3-0.7,0.5-1,0.7
		S53.9,13.9,53.6,14.1z M53.6,6.5c-0.1,0-0.3,0.1-0.5,0.3C53,7,52.8,7.3,52.6,7.6c-0.2,0.3-0.4,0.7-0.6,1.1
		c-0.2,0.4-0.4,0.8-0.6,1.1c-0.2,0.4-0.3,0.7-0.5,1c-0.1,0.3-0.2,0.5-0.3,0.7c0.2-0.2,0.5-0.6,0.9-1c0.4-0.4,0.7-0.9,1-1.3
		c0.3-0.5,0.6-0.9,0.9-1.4c0.2-0.4,0.4-0.8,0.4-1.1c0-0.1,0-0.1,0-0.1C53.7,6.6,53.7,6.5,53.6,6.5z"/>
</g>
</svg>
